M48
METRIC,LZ,000.000
;FILE_FORMAT=3:3
;TYPE=PLATED
;Layer: PTH_Through
;EasyEDA v6.5.22, 2022-11-13 20:11:36
;637256469d5b4e0fbaa5dacb6fe29907,a2731e2ff01b41edbee4f831c5fec297,10
;Gerber Generator version 0.2
;Holesize 1 = 1.300 mm
T01C1.300
;Holesize 2 = 1.301 mm
T02C1.301
%
G05
G90
T01
X026543Y090678
X029083Y090678
X031623Y090678
X034163Y090678
T02
X049657Y115570
X047117Y115570
X044577Y115570
X042037Y115570
X039497Y115570
X036957Y115570
X034417Y115570
X031877Y115570
X029337Y115570
X026797Y115570
X024257Y115570
X021717Y115570
X049657Y095250
X047117Y095250
X044577Y095250
X042037Y095250
X039497Y095250
X036957Y095250
X034417Y095250
X031877Y095250
X029337Y095250
X026797Y095250
X024257Y095250
X021717Y095250
X019177Y095250
X016637Y095250
X014097Y095250
X011557Y095250
M30
