G04 Layer: TopSilkscreenLayer*
G04 EasyEDA v6.5.22, 2022-11-13 20:11:36*
G04 637256469d5b4e0fbaa5dacb6fe29907,a2731e2ff01b41edbee4f831c5fec297,10*
G04 Gerber Generator version 0.2*
G04 Scale: 100 percent, Rotated: No, Reflected: No *
G04 Dimensions in millimeters *
G04 leading zeros omitted , absolute positions ,4 integer and 5 decimal *
%FSLAX45Y45*%
%MOMM*%

%ADD10C,0.2540*%
%ADD11C,0.6350*%
%ADD12C,0.1524*%

%LPD*%
G36*
X4046067Y505714D02*
G01*
X4040378Y505155D01*
X4030268Y503174D01*
X4027525Y495858D01*
X4025900Y490169D01*
X4024223Y481939D01*
X4005529Y470306D01*
X3994454Y473100D01*
X3987596Y474218D01*
X3979621Y474370D01*
X3973118Y465582D01*
X3969156Y458724D01*
X3964787Y448665D01*
X3966870Y440486D01*
X3980434Y429717D01*
X3980331Y417728D01*
X4022750Y417728D01*
X4023360Y422960D01*
X4025188Y428498D01*
X4027779Y434695D01*
X4039717Y441959D01*
X4055922Y441959D01*
X4066997Y435203D01*
X4072991Y422554D01*
X4072991Y417830D01*
X4072788Y415493D01*
X4071467Y409803D01*
X4068013Y401167D01*
X4056176Y392734D01*
X4039463Y392734D01*
X4027627Y401167D01*
X4025137Y407111D01*
X4023309Y412597D01*
X4022750Y417728D01*
X3980331Y417728D01*
X3980179Y405841D01*
X3965092Y392023D01*
X3965092Y383540D01*
X3975912Y364693D01*
X3984599Y359003D01*
X4003903Y365099D01*
X4024172Y353618D01*
X4025900Y345287D01*
X4027474Y339750D01*
X4030065Y332740D01*
X4039006Y328676D01*
X4056634Y328676D01*
X4065524Y332740D01*
X4068165Y339750D01*
X4069689Y345287D01*
X4071416Y353618D01*
X4091686Y365099D01*
X4110990Y359003D01*
X4119575Y364591D01*
X4125976Y375818D01*
X4128973Y382828D01*
X4129786Y385521D01*
X4130852Y390906D01*
X4115460Y405841D01*
X4114901Y429666D01*
X4128820Y440842D01*
X4130801Y448665D01*
X4126433Y458724D01*
X4122470Y465582D01*
X4115968Y474370D01*
X4108043Y474218D01*
X4101134Y473100D01*
X4090060Y470306D01*
X4071365Y481939D01*
X4069689Y490169D01*
X4068064Y495858D01*
X4065320Y503174D01*
X4055719Y504951D01*
X4050537Y505510D01*
G37*
G36*
X4239666Y407517D02*
G01*
X4230370Y403961D01*
X4220210Y391617D01*
X4197807Y391617D01*
X4188002Y401472D01*
X4185107Y403910D01*
X4182567Y405688D01*
X4180738Y406552D01*
X4177436Y407416D01*
X4155998Y397306D01*
X4149750Y387756D01*
X4155846Y368401D01*
X4144568Y348437D01*
X4131818Y345338D01*
X4123334Y342747D01*
X4119727Y336092D01*
X4119727Y316484D01*
X4183786Y316484D01*
X4183786Y333451D01*
X4192219Y345236D01*
X4200398Y348640D01*
X4206087Y349961D01*
X4213707Y350266D01*
X4227068Y342696D01*
X4233062Y332587D01*
X4233062Y316992D01*
X4225798Y305054D01*
X4213402Y299872D01*
X4201566Y299923D01*
X4193336Y305155D01*
X4190847Y307289D01*
X4188612Y309575D01*
X4186936Y311708D01*
X4183786Y316484D01*
X4119727Y316484D01*
X4119727Y313283D01*
X4125163Y305562D01*
X4145279Y301040D01*
X4147058Y296570D01*
X4149902Y291439D01*
X4155846Y281736D01*
X4149750Y262382D01*
X4155795Y253187D01*
X4169105Y245668D01*
X4172762Y243941D01*
X4175810Y242773D01*
X4177842Y242366D01*
X4181043Y242316D01*
X4198010Y257708D01*
X4220260Y257556D01*
X4234738Y241858D01*
X4246524Y244195D01*
X4262678Y254152D01*
X4266844Y262483D01*
X4261205Y282295D01*
X4264406Y286918D01*
X4267403Y291947D01*
X4272483Y301244D01*
X4281881Y303123D01*
X4287621Y304800D01*
X4294124Y307594D01*
X4298238Y320090D01*
X4296511Y337718D01*
X4290212Y344678D01*
X4270806Y348691D01*
X4270806Y350875D01*
X4270451Y352247D01*
X4267911Y357174D01*
X4261256Y367080D01*
X4264152Y378307D01*
X4265269Y385165D01*
X4265422Y392734D01*
X4257192Y398678D01*
X4250334Y402590D01*
G37*
G36*
X3027680Y560933D02*
G01*
X3007664Y554126D01*
X2996184Y549503D01*
X2992069Y547624D01*
X2984449Y543610D01*
X2958642Y516331D01*
X2946654Y485952D01*
X2946654Y445312D01*
X2958541Y414832D01*
X2989580Y383794D01*
X3020060Y371906D01*
X3060700Y371906D01*
X3091180Y383794D01*
X3122218Y414832D01*
X3134106Y445312D01*
X3134106Y485952D01*
X3122218Y516432D01*
X3091180Y547522D01*
X3060700Y558952D01*
G37*
G36*
X3088843Y334822D02*
G01*
X2989580Y334467D01*
X2975610Y330809D01*
X2968904Y328726D01*
X2960979Y325882D01*
X2952800Y322580D01*
X2945333Y319176D01*
X2929077Y311251D01*
X2898140Y280212D01*
X2881731Y249275D01*
X2876448Y225907D01*
X2875178Y218744D01*
X2874365Y212242D01*
X2874060Y207314D01*
X2874010Y197916D01*
X2879648Y185521D01*
X2892044Y179882D01*
X3188716Y179882D01*
X3201111Y185521D01*
X3206750Y197916D01*
X3206699Y207314D01*
X3206394Y212242D01*
X3205581Y218744D01*
X3202838Y232968D01*
X3198977Y249275D01*
X3182620Y280212D01*
X3151682Y311251D01*
X3135376Y319176D01*
X3127908Y322580D01*
X3119475Y325882D01*
X3111144Y328828D01*
X3103981Y330962D01*
G37*
G36*
X2103780Y471779D02*
G01*
X1813864Y471728D01*
X1800555Y462991D01*
X1792782Y448564D01*
X1792782Y442315D01*
X1793036Y439318D01*
X1793697Y435762D01*
X1794713Y432003D01*
X1795932Y428599D01*
X1799082Y421081D01*
X1951380Y306679D01*
X1967992Y307035D01*
X2116480Y418439D01*
X2123694Y429463D01*
X2126081Y446938D01*
X2116226Y464413D01*
G37*
G36*
X1792579Y398983D02*
G01*
X1793900Y251053D01*
X1802688Y236524D01*
X1820113Y224434D01*
X2092858Y223215D01*
X2111705Y232359D01*
X2124405Y250647D01*
X2125776Y398983D01*
X2121865Y396544D01*
X2019198Y319684D01*
X1997354Y303631D01*
X1978101Y290068D01*
X1969312Y285445D01*
X1948992Y285445D01*
X1940204Y290017D01*
X1929485Y297434D01*
X1886407Y329082D01*
X1824126Y375970D01*
X1796440Y396544D01*
G37*
G36*
X878840Y515010D02*
G01*
X845058Y486257D01*
X724052Y381152D01*
X719226Y372262D01*
X719175Y361137D01*
X730656Y349656D01*
X756564Y349656D01*
X756564Y237236D01*
X762508Y225653D01*
X774598Y219405D01*
X834898Y220675D01*
X839317Y224637D01*
X841248Y226618D01*
X843229Y229260D01*
X845007Y232105D01*
X846429Y234899D01*
X849121Y241198D01*
X849121Y300177D01*
X858621Y311251D01*
X912418Y311251D01*
X921969Y300177D01*
X921969Y241198D01*
X924610Y234899D01*
X926033Y232105D01*
X927811Y229260D01*
X929792Y226618D01*
X931722Y224637D01*
X936142Y220675D01*
X996442Y219405D01*
X1008532Y225653D01*
X1014476Y237236D01*
X1014476Y349656D01*
X1039571Y349656D01*
X1049782Y357682D01*
X1052322Y371297D01*
X1049121Y376224D01*
X1042314Y382879D01*
X1026058Y397764D01*
X970483Y447395D01*
X921156Y490728D01*
X899210Y509371D01*
X891641Y515010D01*
G37*
D10*
X4147311Y1682750D02*
G01*
X4077970Y1585976D01*
X4181856Y1585976D01*
X4147311Y1682750D02*
G01*
X4147311Y1537462D01*
D11*
X1958340Y1739900D02*
G01*
X1920239Y1727200D01*
X1894839Y1689100D01*
X1882139Y1625600D01*
X1882139Y1587500D01*
X1894839Y1524000D01*
X1920239Y1485900D01*
X1958340Y1473200D01*
X1983740Y1473200D01*
X2021840Y1485900D01*
X2047240Y1524000D01*
X2059940Y1587500D01*
X2059940Y1625600D01*
X2047240Y1689100D01*
X2021840Y1727200D01*
X1983740Y1739900D01*
X1958340Y1739900D01*
X3050540Y1808479D02*
G01*
X2961640Y1402079D01*
X3126740Y1808479D02*
G01*
X3037840Y1402079D01*
X2961640Y1643379D02*
G01*
X3139440Y1643379D01*
X2948940Y1567179D02*
G01*
X3126740Y1567179D01*
X896620Y1681479D02*
G01*
X896620Y1529079D01*
X833120Y1643379D02*
G01*
X960120Y1567179D01*
X960120Y1643379D02*
G01*
X833120Y1567179D01*
D10*
X4100829Y2909570D02*
G01*
X4177029Y2909570D01*
X4135374Y2854197D01*
X4156202Y2854197D01*
X4169918Y2847339D01*
X4177029Y2840481D01*
X4183888Y2819654D01*
X4183888Y2805684D01*
X4177029Y2785110D01*
X4163059Y2771139D01*
X4142231Y2764281D01*
X4121404Y2764281D01*
X4100829Y2771139D01*
X4093718Y2777997D01*
X4086859Y2791968D01*
D11*
X3131820Y2886710D02*
G01*
X3119120Y2848610D01*
X3093720Y2823210D01*
X3055620Y2810510D01*
X3042920Y2810510D01*
X3004820Y2823210D01*
X2979420Y2848610D01*
X2966720Y2886710D01*
X2966720Y2899410D01*
X2979420Y2937510D01*
X3004820Y2962910D01*
X3042920Y2975610D01*
X3055620Y2975610D01*
X3093720Y2962910D01*
X3119120Y2937510D01*
X3131820Y2886710D01*
X3131820Y2823210D01*
X3119120Y2759710D01*
X3093720Y2721610D01*
X3055620Y2708910D01*
X3030220Y2708910D01*
X2992120Y2721610D01*
X2979420Y2747010D01*
D10*
X3188970Y2992120D02*
G01*
X3217925Y2870707D01*
X3246627Y2992120D02*
G01*
X3217925Y2870707D01*
X3246627Y2992120D02*
G01*
X3275584Y2870707D01*
X3304540Y2992120D02*
G01*
X3275584Y2870707D01*
X3342640Y2992120D02*
G01*
X3423411Y2870707D01*
X3423411Y2992120D02*
G01*
X3342640Y2870707D01*
X3461511Y2992120D02*
G01*
X3507740Y2934207D01*
X3507740Y2870707D01*
X3553713Y2992120D02*
G01*
X3507740Y2934207D01*
X3672840Y2992120D02*
G01*
X3591813Y2870707D01*
X3591813Y2992120D02*
G01*
X3672840Y2992120D01*
X3591813Y2870707D02*
G01*
X3672840Y2870707D01*
X2144775Y2992120D02*
G01*
X2144775Y2870707D01*
X2104390Y2992120D02*
G01*
X2185161Y2992120D01*
X2223261Y2992120D02*
G01*
X2223261Y2905505D01*
X2229104Y2887979D01*
X2240534Y2876550D01*
X2258059Y2870707D01*
X2269490Y2870707D01*
X2286761Y2876550D01*
X2298445Y2887979D01*
X2304034Y2905505D01*
X2304034Y2992120D01*
X2342134Y2992120D02*
G01*
X2388361Y2870707D01*
X2434590Y2992120D02*
G01*
X2388361Y2870707D01*
D11*
X1945640Y2975610D02*
G01*
X1907539Y2962910D01*
X1894839Y2937510D01*
X1894839Y2912110D01*
X1907539Y2886710D01*
X1932940Y2874010D01*
X1983740Y2861310D01*
X2021840Y2848610D01*
X2047240Y2823210D01*
X2059940Y2797810D01*
X2059940Y2759710D01*
X2047240Y2734310D01*
X2034540Y2721610D01*
X1996440Y2708910D01*
X1945640Y2708910D01*
X1907539Y2721610D01*
X1894839Y2734310D01*
X1882139Y2759710D01*
X1882139Y2797810D01*
X1894839Y2823210D01*
X1920239Y2848610D01*
X1958340Y2861310D01*
X2009140Y2874010D01*
X2034540Y2886710D01*
X2047240Y2912110D01*
X2047240Y2937510D01*
X2034540Y2962910D01*
X1996440Y2975610D01*
X1945640Y2975610D01*
X984250Y2975610D02*
G01*
X857250Y2708910D01*
X806450Y2975610D02*
G01*
X984250Y2975610D01*
D10*
X1028700Y2992120D02*
G01*
X1028700Y2870707D01*
X1028700Y2992120D02*
G01*
X1080770Y2992120D01*
X1098042Y2986278D01*
X1103629Y2980436D01*
X1109471Y2969005D01*
X1109471Y2951479D01*
X1103629Y2940050D01*
X1098042Y2934207D01*
X1080770Y2928620D01*
X1028700Y2928620D01*
X1182370Y2992120D02*
G01*
X1170686Y2986278D01*
X1159255Y2974594D01*
X1153413Y2963163D01*
X1147571Y2945892D01*
X1147571Y2916936D01*
X1153413Y2899663D01*
X1159255Y2887979D01*
X1170686Y2876550D01*
X1182370Y2870707D01*
X1205229Y2870707D01*
X1216913Y2876550D01*
X1228344Y2887979D01*
X1234186Y2899663D01*
X1240028Y2916936D01*
X1240028Y2945892D01*
X1234186Y2963163D01*
X1228344Y2974594D01*
X1216913Y2986278D01*
X1205229Y2992120D01*
X1182370Y2992120D01*
X1199642Y2893821D02*
G01*
X1234186Y2859278D01*
X1278128Y2992120D02*
G01*
X1278128Y2870707D01*
X1278128Y2992120D02*
G01*
X1329944Y2992120D01*
X1347470Y2986278D01*
X1353057Y2980436D01*
X1358900Y2969005D01*
X1358900Y2957321D01*
X1353057Y2945892D01*
X1347470Y2940050D01*
X1329944Y2934207D01*
X1278128Y2934207D01*
X1318513Y2934207D02*
G01*
X1358900Y2870707D01*
X1477771Y2974594D02*
G01*
X1466342Y2986278D01*
X1449070Y2992120D01*
X1425955Y2992120D01*
X1408429Y2986278D01*
X1397000Y2974594D01*
X1397000Y2963163D01*
X1402842Y2951479D01*
X1408429Y2945892D01*
X1420113Y2940050D01*
X1454657Y2928620D01*
X1466342Y2922778D01*
X1471929Y2916936D01*
X1477771Y2905505D01*
X1477771Y2887979D01*
X1466342Y2876550D01*
X1449070Y2870707D01*
X1425955Y2870707D01*
X1408429Y2876550D01*
X1397000Y2887979D01*
X4093718Y4110736D02*
G01*
X4093718Y4117594D01*
X4100829Y4131563D01*
X4107688Y4138421D01*
X4121404Y4145279D01*
X4149090Y4145279D01*
X4163059Y4138421D01*
X4169918Y4131563D01*
X4177029Y4117594D01*
X4177029Y4103878D01*
X4169918Y4089907D01*
X4156202Y4069079D01*
X4086859Y3999992D01*
X4183888Y3999992D01*
D11*
X3119120Y4164329D02*
G01*
X3106420Y4189729D01*
X3068320Y4202429D01*
X3042920Y4202429D01*
X3004820Y4189729D01*
X2979420Y4151629D01*
X2966720Y4088129D01*
X2966720Y4024629D01*
X2979420Y3973829D01*
X3004820Y3948429D01*
X3042920Y3935729D01*
X3055620Y3935729D01*
X3093720Y3948429D01*
X3119120Y3973829D01*
X3131820Y4011929D01*
X3131820Y4024629D01*
X3119120Y4062729D01*
X3093720Y4088129D01*
X3055620Y4100829D01*
X3042920Y4100829D01*
X3004820Y4088129D01*
X2979420Y4062729D01*
X2966720Y4024629D01*
D10*
X3188970Y4218939D02*
G01*
X3188970Y4097528D01*
X3188970Y4218939D02*
G01*
X3235197Y4097528D01*
X3281425Y4218939D02*
G01*
X3235197Y4097528D01*
X3281425Y4218939D02*
G01*
X3281425Y4097528D01*
X3319525Y4218939D02*
G01*
X3319525Y4097528D01*
X3319525Y4218939D02*
G01*
X3400297Y4097528D01*
X3400297Y4218939D02*
G01*
X3400297Y4097528D01*
X3472941Y4218939D02*
G01*
X3461511Y4213097D01*
X3449827Y4201413D01*
X3444240Y4189984D01*
X3438397Y4172712D01*
X3438397Y4143755D01*
X3444240Y4126484D01*
X3449827Y4114800D01*
X3461511Y4103370D01*
X3472941Y4097528D01*
X3496056Y4097528D01*
X3507740Y4103370D01*
X3519170Y4114800D01*
X3525011Y4126484D01*
X3530600Y4143755D01*
X3530600Y4172712D01*
X3525011Y4189984D01*
X3519170Y4201413D01*
X3507740Y4213097D01*
X3496056Y4218939D01*
X3472941Y4218939D01*
X2162047Y4218939D02*
G01*
X2162047Y4126484D01*
X2156459Y4109212D01*
X2150618Y4103370D01*
X2138934Y4097528D01*
X2127504Y4097528D01*
X2115820Y4103370D01*
X2110231Y4109212D01*
X2104390Y4126484D01*
X2104390Y4137913D01*
X2200147Y4218939D02*
G01*
X2200147Y4097528D01*
X2280920Y4218939D02*
G01*
X2200147Y4137913D01*
X2229104Y4166870D02*
G01*
X2280920Y4097528D01*
X2319020Y4218939D02*
G01*
X2319020Y4097528D01*
X2319020Y4097528D02*
G01*
X2388361Y4097528D01*
D11*
X2034540Y4202429D02*
G01*
X1907539Y4202429D01*
X1894839Y4088129D01*
X1907539Y4100829D01*
X1945640Y4113529D01*
X1983740Y4113529D01*
X2021840Y4100829D01*
X2047240Y4075429D01*
X2059940Y4037329D01*
X2059940Y4011929D01*
X2047240Y3973829D01*
X2021840Y3948429D01*
X1983740Y3935729D01*
X1945640Y3935729D01*
X1907539Y3948429D01*
X1894839Y3961129D01*
X1882139Y3986529D01*
D10*
X1124204Y4189984D02*
G01*
X1118362Y4201413D01*
X1106931Y4213097D01*
X1095247Y4218939D01*
X1072134Y4218939D01*
X1060704Y4213097D01*
X1049020Y4201413D01*
X1043431Y4189984D01*
X1037589Y4172712D01*
X1037589Y4143755D01*
X1043431Y4126484D01*
X1049020Y4114800D01*
X1060704Y4103370D01*
X1072134Y4097528D01*
X1095247Y4097528D01*
X1106931Y4103370D01*
X1118362Y4114800D01*
X1124204Y4126484D01*
X1124204Y4143755D01*
X1095247Y4143755D02*
G01*
X1124204Y4143755D01*
X1162304Y4218939D02*
G01*
X1162304Y4097528D01*
X1243076Y4218939D02*
G01*
X1243076Y4097528D01*
X1162304Y4161028D02*
G01*
X1243076Y4161028D01*
X1281176Y4218939D02*
G01*
X1281176Y4097528D01*
D11*
X942339Y4202429D02*
G01*
X815339Y4024629D01*
X1005839Y4024629D01*
X942339Y4202429D02*
G01*
X942339Y3935729D01*
D10*
X4104640Y5326634D02*
G01*
X4118609Y5333745D01*
X4139184Y5354320D01*
X4139184Y5209031D01*
X3201670Y5427979D02*
G01*
X3201670Y5306568D01*
X3201670Y5427979D02*
G01*
X3242056Y5427979D01*
X3259327Y5422137D01*
X3271011Y5410454D01*
X3276600Y5399023D01*
X3282441Y5381752D01*
X3282441Y5352795D01*
X3276600Y5335523D01*
X3271011Y5323839D01*
X3259327Y5312410D01*
X3242056Y5306568D01*
X3201670Y5306568D01*
X3320541Y5427979D02*
G01*
X3320541Y5306568D01*
X3320541Y5427979D02*
G01*
X3395725Y5427979D01*
X3320541Y5370068D02*
G01*
X3366770Y5370068D01*
X3320541Y5306568D02*
G01*
X3395725Y5306568D01*
X3433825Y5427979D02*
G01*
X3433825Y5306568D01*
X3433825Y5427979D02*
G01*
X3508756Y5427979D01*
X3433825Y5370068D02*
G01*
X3479800Y5370068D01*
X2150618Y5427853D02*
G01*
X2104390Y5306695D01*
X2150618Y5427853D02*
G01*
X2196845Y5306695D01*
X2121661Y5347080D02*
G01*
X2179320Y5347080D01*
X2234945Y5427853D02*
G01*
X2234945Y5306695D01*
X2234945Y5427853D02*
G01*
X2286761Y5427853D01*
X2304034Y5422011D01*
X2309875Y5416422D01*
X2315718Y5404738D01*
X2315718Y5393309D01*
X2309875Y5381625D01*
X2304034Y5375782D01*
X2286761Y5370195D01*
X2234945Y5370195D02*
G01*
X2286761Y5370195D01*
X2304034Y5364353D01*
X2309875Y5358511D01*
X2315718Y5347080D01*
X2315718Y5329809D01*
X2309875Y5318125D01*
X2304034Y5312282D01*
X2286761Y5306695D01*
X2234945Y5306695D01*
X2440431Y5398896D02*
G01*
X2434590Y5410580D01*
X2423159Y5422011D01*
X2411475Y5427853D01*
X2388361Y5427853D01*
X2376931Y5422011D01*
X2365247Y5410580D01*
X2359659Y5398896D01*
X2353818Y5381625D01*
X2353818Y5352922D01*
X2359659Y5335396D01*
X2365247Y5323967D01*
X2376931Y5312282D01*
X2388361Y5306695D01*
X2411475Y5306695D01*
X2423159Y5312282D01*
X2434590Y5323967D01*
X2440431Y5335396D01*
D11*
X2992120Y5411470D02*
G01*
X3131820Y5411470D01*
X3055620Y5309870D01*
X3093720Y5309870D01*
X3119120Y5297170D01*
X3131820Y5284470D01*
X3144520Y5246370D01*
X3144520Y5220970D01*
X3131820Y5182870D01*
X3106420Y5157470D01*
X3068320Y5144770D01*
X3030220Y5144770D01*
X2992120Y5157470D01*
X2979420Y5170170D01*
X2966720Y5195570D01*
X1894839Y5347970D02*
G01*
X1894839Y5360670D01*
X1907539Y5386070D01*
X1920239Y5398770D01*
X1945640Y5411470D01*
X1996440Y5411470D01*
X2021840Y5398770D01*
X2034540Y5386070D01*
X2047240Y5360670D01*
X2047240Y5335270D01*
X2034540Y5309870D01*
X2009140Y5271770D01*
X1882139Y5144770D01*
X2059940Y5144770D01*
X833221Y5360644D02*
G01*
X858621Y5373344D01*
X896721Y5411444D01*
X896721Y5144744D01*
G36*
X1490624Y2370277D02*
G01*
X1490624Y2339797D01*
X1522628Y2339797D01*
X1522628Y2370277D01*
G37*
G36*
X1322171Y2370277D02*
G01*
X1322171Y2339797D01*
X1354124Y2339797D01*
X1354124Y2370277D01*
G37*
G36*
X2570124Y2370277D02*
G01*
X2570124Y2339797D01*
X2602128Y2339797D01*
X2602128Y2370277D01*
G37*
G36*
X2401671Y2370277D02*
G01*
X2401671Y2339797D01*
X2433624Y2339797D01*
X2433624Y2370277D01*
G37*
G36*
X3649624Y2370277D02*
G01*
X3649624Y2339797D01*
X3681628Y2339797D01*
X3681628Y2370277D01*
G37*
G36*
X3481171Y2370277D02*
G01*
X3481171Y2339797D01*
X3513124Y2339797D01*
X3513124Y2370277D01*
G37*
G36*
X4729124Y2370277D02*
G01*
X4729124Y2339797D01*
X4761128Y2339797D01*
X4761128Y2370277D01*
G37*
G36*
X4560671Y2370277D02*
G01*
X4560671Y2339797D01*
X4592624Y2339797D01*
X4592624Y2370277D01*
G37*
G36*
X5808624Y2370277D02*
G01*
X5808624Y2339797D01*
X5840628Y2339797D01*
X5840628Y2370277D01*
G37*
G36*
X5640171Y2370277D02*
G01*
X5640171Y2339797D01*
X5672124Y2339797D01*
X5672124Y2370277D01*
G37*
G36*
X1490014Y1148791D02*
G01*
X1490014Y1118311D01*
X1522018Y1118311D01*
X1522018Y1148791D01*
G37*
G36*
X1321562Y1148791D02*
G01*
X1321562Y1118311D01*
X1353515Y1118311D01*
X1353515Y1148791D01*
G37*
G36*
X2566162Y1150620D02*
G01*
X2566162Y1120140D01*
X2598166Y1120140D01*
X2598166Y1150620D01*
G37*
G36*
X2397658Y1150620D02*
G01*
X2397658Y1120140D01*
X2429662Y1120140D01*
X2429662Y1150620D01*
G37*
G36*
X3645662Y1150620D02*
G01*
X3645662Y1120140D01*
X3677665Y1120140D01*
X3677665Y1150620D01*
G37*
G36*
X3477158Y1150620D02*
G01*
X3477158Y1120140D01*
X3509162Y1120140D01*
X3509162Y1150620D01*
G37*
G36*
X4725162Y1150620D02*
G01*
X4725162Y1120140D01*
X4757166Y1120140D01*
X4757166Y1150620D01*
G37*
G36*
X4556658Y1150620D02*
G01*
X4556658Y1120140D01*
X4588662Y1120140D01*
X4588662Y1150620D01*
G37*
G36*
X5804662Y1150620D02*
G01*
X5804662Y1120140D01*
X5836666Y1120140D01*
X5836666Y1150620D01*
G37*
G36*
X5636158Y1150620D02*
G01*
X5636158Y1120140D01*
X5668162Y1120140D01*
X5668162Y1150620D01*
G37*
G36*
X5808624Y3602177D02*
G01*
X5808624Y3571697D01*
X5840628Y3571697D01*
X5840628Y3602177D01*
G37*
G36*
X5640171Y3602177D02*
G01*
X5640171Y3571697D01*
X5672124Y3571697D01*
X5672124Y3602177D01*
G37*
G36*
X2570124Y6040577D02*
G01*
X2570124Y6010097D01*
X2602128Y6010097D01*
X2602128Y6040577D01*
G37*
G36*
X2401671Y6040577D02*
G01*
X2401671Y6010097D01*
X2433624Y6010097D01*
X2433624Y6040577D01*
G37*
G36*
X3649624Y6040577D02*
G01*
X3649624Y6010097D01*
X3681628Y6010097D01*
X3681628Y6040577D01*
G37*
G36*
X3481171Y6040577D02*
G01*
X3481171Y6010097D01*
X3513124Y6010097D01*
X3513124Y6040577D01*
G37*
G36*
X4729124Y6040577D02*
G01*
X4729124Y6010097D01*
X4761128Y6010097D01*
X4761128Y6040577D01*
G37*
G36*
X4560671Y6040577D02*
G01*
X4560671Y6010097D01*
X4592624Y6010097D01*
X4592624Y6040577D01*
G37*
G36*
X5808624Y6040577D02*
G01*
X5808624Y6010097D01*
X5840628Y6010097D01*
X5840628Y6040577D01*
G37*
G36*
X5640171Y6040577D02*
G01*
X5640171Y6010097D01*
X5672124Y6010097D01*
X5672124Y6040577D01*
G37*
G36*
X1490624Y4834077D02*
G01*
X1490624Y4803597D01*
X1522628Y4803597D01*
X1522628Y4834077D01*
G37*
G36*
X1322171Y4834077D02*
G01*
X1322171Y4803597D01*
X1354124Y4803597D01*
X1354124Y4834077D01*
G37*
G36*
X2570124Y4834077D02*
G01*
X2570124Y4803597D01*
X2602128Y4803597D01*
X2602128Y4834077D01*
G37*
G36*
X2401671Y4834077D02*
G01*
X2401671Y4803597D01*
X2433624Y4803597D01*
X2433624Y4834077D01*
G37*
G36*
X3649624Y4834077D02*
G01*
X3649624Y4803597D01*
X3681628Y4803597D01*
X3681628Y4834077D01*
G37*
G36*
X3481171Y4834077D02*
G01*
X3481171Y4803597D01*
X3513124Y4803597D01*
X3513124Y4834077D01*
G37*
G36*
X4729124Y4834077D02*
G01*
X4729124Y4803597D01*
X4761128Y4803597D01*
X4761128Y4834077D01*
G37*
G36*
X4560671Y4834077D02*
G01*
X4560671Y4803597D01*
X4592624Y4803597D01*
X4592624Y4834077D01*
G37*
G36*
X5808624Y4834077D02*
G01*
X5808624Y4803597D01*
X5840628Y4803597D01*
X5840628Y4834077D01*
G37*
G36*
X5640171Y4834077D02*
G01*
X5640171Y4803597D01*
X5672124Y4803597D01*
X5672124Y4834077D01*
G37*
G36*
X1490624Y3602177D02*
G01*
X1490624Y3571697D01*
X1522628Y3571697D01*
X1522628Y3602177D01*
G37*
G36*
X1322171Y3602177D02*
G01*
X1322171Y3571697D01*
X1354124Y3571697D01*
X1354124Y3602177D01*
G37*
G36*
X2570124Y3602177D02*
G01*
X2570124Y3571697D01*
X2602128Y3571697D01*
X2602128Y3602177D01*
G37*
G36*
X2401671Y3602177D02*
G01*
X2401671Y3571697D01*
X2433624Y3571697D01*
X2433624Y3602177D01*
G37*
G36*
X3649624Y3602177D02*
G01*
X3649624Y3571697D01*
X3681628Y3571697D01*
X3681628Y3602177D01*
G37*
G36*
X3481171Y3602177D02*
G01*
X3481171Y3571697D01*
X3513124Y3571697D01*
X3513124Y3602177D01*
G37*
G36*
X4729124Y3602177D02*
G01*
X4729124Y3571697D01*
X4761128Y3571697D01*
X4761128Y3602177D01*
G37*
G36*
X4560671Y3602177D02*
G01*
X4560671Y3571697D01*
X4592624Y3571697D01*
X4592624Y3602177D01*
G37*
G36*
X1490624Y6040577D02*
G01*
X1490624Y6010097D01*
X1522628Y6010097D01*
X1522628Y6040577D01*
G37*
G36*
X1322171Y6040577D02*
G01*
X1322171Y6010097D01*
X1354124Y6010097D01*
X1354124Y6040577D01*
G37*
X5081264Y5220964D02*
G01*
X5214614Y5363207D01*
X5347964Y5220964D01*
X5083807Y4133850D02*
G01*
X5217157Y3991607D01*
X5341614Y4133850D01*
X5281922Y2960364D02*
G01*
X5139679Y2827014D01*
X5281922Y2702557D01*
X5142222Y1738622D02*
G01*
X5284464Y1605272D01*
X5142222Y1480814D01*
X5045707Y340357D02*
G01*
X5167622Y234695D01*
X5365750Y464814D01*
D12*
X1329766Y2347417D02*
G01*
X1329766Y2072172D01*
X1515013Y2347417D02*
G01*
X1515013Y2072172D01*
X1515013Y2072172D02*
G01*
X1495709Y2072172D01*
X1329766Y2072172D02*
G01*
X1349070Y2072172D01*
X1510012Y2301473D02*
G01*
X1334767Y2301473D01*
X2409266Y2347417D02*
G01*
X2409266Y2072172D01*
X2594513Y2347417D02*
G01*
X2594513Y2072172D01*
X2594513Y2072172D02*
G01*
X2575209Y2072172D01*
X2409266Y2072172D02*
G01*
X2428570Y2072172D01*
X2589512Y2301473D02*
G01*
X2414267Y2301473D01*
X3488766Y2347417D02*
G01*
X3488766Y2072172D01*
X3674013Y2347417D02*
G01*
X3674013Y2072172D01*
X3674013Y2072172D02*
G01*
X3654709Y2072172D01*
X3488766Y2072172D02*
G01*
X3508070Y2072172D01*
X3669012Y2301473D02*
G01*
X3493767Y2301473D01*
X4568266Y2347417D02*
G01*
X4568266Y2072172D01*
X4753513Y2347417D02*
G01*
X4753513Y2072172D01*
X4753513Y2072172D02*
G01*
X4734209Y2072172D01*
X4568266Y2072172D02*
G01*
X4587570Y2072172D01*
X4748512Y2301473D02*
G01*
X4573267Y2301473D01*
X5647766Y2347417D02*
G01*
X5647766Y2072172D01*
X5833013Y2347417D02*
G01*
X5833013Y2072172D01*
X5833013Y2072172D02*
G01*
X5813709Y2072172D01*
X5647766Y2072172D02*
G01*
X5667070Y2072172D01*
X5828012Y2301473D02*
G01*
X5652767Y2301473D01*
X1329156Y1125956D02*
G01*
X1329156Y850712D01*
X1514403Y1125956D02*
G01*
X1514403Y850712D01*
X1514403Y850712D02*
G01*
X1495099Y850712D01*
X1329156Y850712D02*
G01*
X1348460Y850712D01*
X1509402Y1080013D02*
G01*
X1334157Y1080013D01*
X2405278Y1127760D02*
G01*
X2405278Y852515D01*
X2590525Y1127760D02*
G01*
X2590525Y852515D01*
X2590525Y852515D02*
G01*
X2571221Y852515D01*
X2405278Y852515D02*
G01*
X2424582Y852515D01*
X2585524Y1081816D02*
G01*
X2410279Y1081816D01*
X3484778Y1127760D02*
G01*
X3484778Y852515D01*
X3670025Y1127760D02*
G01*
X3670025Y852515D01*
X3670025Y852515D02*
G01*
X3650721Y852515D01*
X3484778Y852515D02*
G01*
X3504082Y852515D01*
X3665024Y1081816D02*
G01*
X3489779Y1081816D01*
X4564278Y1127760D02*
G01*
X4564278Y852515D01*
X4749525Y1127760D02*
G01*
X4749525Y852515D01*
X4749525Y852515D02*
G01*
X4730221Y852515D01*
X4564278Y852515D02*
G01*
X4583582Y852515D01*
X4744524Y1081816D02*
G01*
X4569279Y1081816D01*
X5643778Y1127760D02*
G01*
X5643778Y852515D01*
X5829025Y1127760D02*
G01*
X5829025Y852515D01*
X5829025Y852515D02*
G01*
X5809721Y852515D01*
X5643778Y852515D02*
G01*
X5663082Y852515D01*
X5824024Y1081816D02*
G01*
X5648779Y1081816D01*
X5647766Y3579317D02*
G01*
X5647766Y3304072D01*
X5833013Y3579317D02*
G01*
X5833013Y3304072D01*
X5833013Y3304072D02*
G01*
X5813709Y3304072D01*
X5647766Y3304072D02*
G01*
X5667070Y3304072D01*
X5828012Y3533373D02*
G01*
X5652767Y3533373D01*
X2409266Y6017717D02*
G01*
X2409266Y5742472D01*
X2594513Y6017717D02*
G01*
X2594513Y5742472D01*
X2594513Y5742472D02*
G01*
X2575209Y5742472D01*
X2409266Y5742472D02*
G01*
X2428570Y5742472D01*
X2589512Y5971773D02*
G01*
X2414267Y5971773D01*
X3488766Y6017717D02*
G01*
X3488766Y5742472D01*
X3674013Y6017717D02*
G01*
X3674013Y5742472D01*
X3674013Y5742472D02*
G01*
X3654709Y5742472D01*
X3488766Y5742472D02*
G01*
X3508070Y5742472D01*
X3669012Y5971773D02*
G01*
X3493767Y5971773D01*
X4568266Y6017717D02*
G01*
X4568266Y5742472D01*
X4753513Y6017717D02*
G01*
X4753513Y5742472D01*
X4753513Y5742472D02*
G01*
X4734209Y5742472D01*
X4568266Y5742472D02*
G01*
X4587570Y5742472D01*
X4748512Y5971773D02*
G01*
X4573267Y5971773D01*
X5647766Y6017717D02*
G01*
X5647766Y5742472D01*
X5833013Y6017717D02*
G01*
X5833013Y5742472D01*
X5833013Y5742472D02*
G01*
X5813709Y5742472D01*
X5647766Y5742472D02*
G01*
X5667070Y5742472D01*
X5828012Y5971773D02*
G01*
X5652767Y5971773D01*
X1329766Y4811217D02*
G01*
X1329766Y4535972D01*
X1515013Y4811217D02*
G01*
X1515013Y4535972D01*
X1515013Y4535972D02*
G01*
X1495709Y4535972D01*
X1329766Y4535972D02*
G01*
X1349070Y4535972D01*
X1510012Y4765273D02*
G01*
X1334767Y4765273D01*
X2409266Y4811217D02*
G01*
X2409266Y4535972D01*
X2594513Y4811217D02*
G01*
X2594513Y4535972D01*
X2594513Y4535972D02*
G01*
X2575209Y4535972D01*
X2409266Y4535972D02*
G01*
X2428570Y4535972D01*
X2589512Y4765273D02*
G01*
X2414267Y4765273D01*
X3488766Y4811217D02*
G01*
X3488766Y4535972D01*
X3674013Y4811217D02*
G01*
X3674013Y4535972D01*
X3674013Y4535972D02*
G01*
X3654709Y4535972D01*
X3488766Y4535972D02*
G01*
X3508070Y4535972D01*
X3669012Y4765273D02*
G01*
X3493767Y4765273D01*
X4568266Y4811217D02*
G01*
X4568266Y4535972D01*
X4753513Y4811217D02*
G01*
X4753513Y4535972D01*
X4753513Y4535972D02*
G01*
X4734209Y4535972D01*
X4568266Y4535972D02*
G01*
X4587570Y4535972D01*
X4748512Y4765273D02*
G01*
X4573267Y4765273D01*
X5647766Y4811217D02*
G01*
X5647766Y4535972D01*
X5833013Y4811217D02*
G01*
X5833013Y4535972D01*
X5833013Y4535972D02*
G01*
X5813709Y4535972D01*
X5647766Y4535972D02*
G01*
X5667070Y4535972D01*
X5828012Y4765273D02*
G01*
X5652767Y4765273D01*
X1329766Y3579317D02*
G01*
X1329766Y3304072D01*
X1515013Y3579317D02*
G01*
X1515013Y3304072D01*
X1515013Y3304072D02*
G01*
X1495709Y3304072D01*
X1329766Y3304072D02*
G01*
X1349070Y3304072D01*
X1510012Y3533373D02*
G01*
X1334767Y3533373D01*
X2409266Y3579317D02*
G01*
X2409266Y3304072D01*
X2594513Y3579317D02*
G01*
X2594513Y3304072D01*
X2594513Y3304072D02*
G01*
X2575209Y3304072D01*
X2409266Y3304072D02*
G01*
X2428570Y3304072D01*
X2589512Y3533373D02*
G01*
X2414267Y3533373D01*
X3488766Y3579317D02*
G01*
X3488766Y3304072D01*
X3674013Y3579317D02*
G01*
X3674013Y3304072D01*
X3674013Y3304072D02*
G01*
X3654709Y3304072D01*
X3488766Y3304072D02*
G01*
X3508070Y3304072D01*
X3669012Y3533373D02*
G01*
X3493767Y3533373D01*
X4568266Y3579317D02*
G01*
X4568266Y3304072D01*
X4753513Y3579317D02*
G01*
X4753513Y3304072D01*
X4753513Y3304072D02*
G01*
X4734209Y3304072D01*
X4568266Y3304072D02*
G01*
X4587570Y3304072D01*
X4748512Y3533373D02*
G01*
X4573267Y3533373D01*
X1329766Y6017717D02*
G01*
X1329766Y5742472D01*
X1515013Y6017717D02*
G01*
X1515013Y5742472D01*
X1515013Y5742472D02*
G01*
X1495709Y5742472D01*
X1329766Y5742472D02*
G01*
X1349070Y5742472D01*
X1510012Y5971773D02*
G01*
X1334767Y5971773D01*
D10*
X1104900Y7747000D02*
G01*
X1143000Y7747000D01*
X558800Y7956550D02*
G01*
X558800Y7893050D01*
X533400Y7924800D02*
G01*
X584200Y7924800D01*
D12*
X636419Y7993788D02*
G01*
X636419Y8040380D01*
X636419Y8040380D01*
X673219Y8040380D01*
X659279Y7993788D02*
G01*
X659279Y8017520D01*
X659279Y8017520D01*
X1042520Y8017520D01*
X1042520Y8017520D01*
X1042520Y7993788D01*
X659279Y7678011D02*
G01*
X659279Y7654279D01*
X659279Y7654279D01*
X1042520Y7654279D01*
X1042520Y7654279D01*
X1042520Y7678011D01*
D10*
X1104900Y6807200D02*
G01*
X1143000Y6807200D01*
X558800Y7016750D02*
G01*
X558800Y6953250D01*
X533400Y6985000D02*
G01*
X584200Y6985000D01*
D12*
X636419Y7053988D02*
G01*
X636419Y7100580D01*
X636419Y7100580D01*
X673219Y7100580D01*
X659279Y7053988D02*
G01*
X659279Y7077720D01*
X659279Y7077720D01*
X1042520Y7077720D01*
X1042520Y7077720D01*
X1042520Y7053988D01*
X659279Y6738211D02*
G01*
X659279Y6714479D01*
X659279Y6714479D01*
X1042520Y6714479D01*
X1042520Y6714479D01*
X1042520Y6738211D01*
D10*
X5537200Y6807200D02*
G01*
X5575300Y6807200D01*
X4991100Y7016750D02*
G01*
X4991100Y6953250D01*
X4965700Y6985000D02*
G01*
X5016500Y6985000D01*
D12*
X5068719Y7053988D02*
G01*
X5068719Y7100580D01*
X5068719Y7100580D01*
X5105519Y7100580D01*
X5091579Y7053988D02*
G01*
X5091579Y7077720D01*
X5091579Y7077720D01*
X5474820Y7077720D01*
X5474820Y7077720D01*
X5474820Y7053988D01*
X5091579Y6738211D02*
G01*
X5091579Y6714479D01*
X5091579Y6714479D01*
X5474820Y6714479D01*
X5474820Y6714479D01*
X5474820Y6738211D01*
D10*
X5537200Y7747000D02*
G01*
X5575300Y7747000D01*
X4991100Y7956550D02*
G01*
X4991100Y7893050D01*
X4965700Y7924800D02*
G01*
X5016500Y7924800D01*
D12*
X5068719Y7993788D02*
G01*
X5068719Y8040380D01*
X5068719Y8040380D01*
X5105519Y8040380D01*
X5091579Y7993788D02*
G01*
X5091579Y8017520D01*
X5091579Y8017520D01*
X5474820Y8017520D01*
X5474820Y8017520D01*
X5474820Y7993788D01*
X5091579Y7678011D02*
G01*
X5091579Y7654279D01*
X5091579Y7654279D01*
X5474820Y7654279D01*
X5474820Y7654279D01*
X5474820Y7678011D01*
D10*
X5537200Y8686800D02*
G01*
X5575300Y8686800D01*
X4991100Y8896350D02*
G01*
X4991100Y8832850D01*
X4965700Y8864600D02*
G01*
X5016500Y8864600D01*
D12*
X5068719Y8933588D02*
G01*
X5068719Y8980180D01*
X5068719Y8980180D01*
X5105519Y8980180D01*
X5091579Y8933588D02*
G01*
X5091579Y8957320D01*
X5091579Y8957320D01*
X5474820Y8957320D01*
X5474820Y8957320D01*
X5474820Y8933588D01*
X5091579Y8617811D02*
G01*
X5091579Y8594079D01*
X5091579Y8594079D01*
X5474820Y8594079D01*
X5474820Y8594079D01*
X5474820Y8617811D01*
D10*
X1104900Y8686800D02*
G01*
X1143000Y8686800D01*
X558800Y8896350D02*
G01*
X558800Y8832850D01*
X533400Y8864600D02*
G01*
X584200Y8864600D01*
D12*
X636419Y8933588D02*
G01*
X636419Y8980180D01*
X636419Y8980180D01*
X673219Y8980180D01*
X659279Y8933588D02*
G01*
X659279Y8957320D01*
X659279Y8957320D01*
X1042520Y8957320D01*
X1042520Y8957320D01*
X1042520Y8933588D01*
X659279Y8617811D02*
G01*
X659279Y8594079D01*
X659279Y8594079D01*
X1042520Y8594079D01*
X1042520Y8594079D01*
X1042520Y8617811D01*
D10*
X5530809Y4373760D02*
G01*
X5493923Y4373760D01*
X4927696Y4373760D02*
G01*
X4890810Y4373760D01*
X4890810Y4993756D02*
G01*
X4890810Y4373760D01*
X5530809Y4993756D02*
G01*
X5530809Y4373760D01*
X5530809Y4993756D02*
G01*
X5493923Y4993756D01*
X5327695Y4993756D02*
G01*
X5093924Y4993756D01*
X4927696Y4993756D02*
G01*
X4890810Y4993756D01*
X5327695Y4373760D02*
G01*
X5093924Y4373760D01*
X4451309Y4373760D02*
G01*
X4414423Y4373760D01*
X3848196Y4373760D02*
G01*
X3811310Y4373760D01*
X3811310Y4993756D02*
G01*
X3811310Y4373760D01*
X4451309Y4993756D02*
G01*
X4451309Y4373760D01*
X4451309Y4993756D02*
G01*
X4414423Y4993756D01*
X4248195Y4993756D02*
G01*
X4014424Y4993756D01*
X3848196Y4993756D02*
G01*
X3811310Y4993756D01*
X4248195Y4373760D02*
G01*
X4014424Y4373760D01*
X3371809Y4373760D02*
G01*
X3334923Y4373760D01*
X2768696Y4373760D02*
G01*
X2731810Y4373760D01*
X2731810Y4993756D02*
G01*
X2731810Y4373760D01*
X3371809Y4993756D02*
G01*
X3371809Y4373760D01*
X3371809Y4993756D02*
G01*
X3334923Y4993756D01*
X3168695Y4993756D02*
G01*
X2934924Y4993756D01*
X2768696Y4993756D02*
G01*
X2731810Y4993756D01*
X3168695Y4373760D02*
G01*
X2934924Y4373760D01*
X2292309Y4373760D02*
G01*
X2255423Y4373760D01*
X1689196Y4373760D02*
G01*
X1652310Y4373760D01*
X1652310Y4993756D02*
G01*
X1652310Y4373760D01*
X2292309Y4993756D02*
G01*
X2292309Y4373760D01*
X2292309Y4993756D02*
G01*
X2255423Y4993756D01*
X2089195Y4993756D02*
G01*
X1855424Y4993756D01*
X1689196Y4993756D02*
G01*
X1652310Y4993756D01*
X2089195Y4373760D02*
G01*
X1855424Y4373760D01*
X1212809Y4373760D02*
G01*
X1175923Y4373760D01*
X609696Y4373760D02*
G01*
X572810Y4373760D01*
X572810Y4993756D02*
G01*
X572810Y4373760D01*
X1212809Y4993756D02*
G01*
X1212809Y4373760D01*
X1212809Y4993756D02*
G01*
X1175923Y4993756D01*
X1009695Y4993756D02*
G01*
X775924Y4993756D01*
X609696Y4993756D02*
G01*
X572810Y4993756D01*
X1009695Y4373760D02*
G01*
X775924Y4373760D01*
X1212809Y5580260D02*
G01*
X1175923Y5580260D01*
X609696Y5580260D02*
G01*
X572810Y5580260D01*
X572810Y6200256D02*
G01*
X572810Y5580260D01*
X1212809Y6200256D02*
G01*
X1212809Y5580260D01*
X1212809Y6200256D02*
G01*
X1175923Y6200256D01*
X1009695Y6200256D02*
G01*
X775924Y6200256D01*
X609696Y6200256D02*
G01*
X572810Y6200256D01*
X1009695Y5580260D02*
G01*
X775924Y5580260D01*
X2292309Y5580260D02*
G01*
X2255423Y5580260D01*
X1689196Y5580260D02*
G01*
X1652310Y5580260D01*
X1652310Y6200256D02*
G01*
X1652310Y5580260D01*
X2292309Y6200256D02*
G01*
X2292309Y5580260D01*
X2292309Y6200256D02*
G01*
X2255423Y6200256D01*
X2089195Y6200256D02*
G01*
X1855424Y6200256D01*
X1689196Y6200256D02*
G01*
X1652310Y6200256D01*
X2089195Y5580260D02*
G01*
X1855424Y5580260D01*
X3371809Y5580260D02*
G01*
X3334923Y5580260D01*
X2768696Y5580260D02*
G01*
X2731810Y5580260D01*
X2731810Y6200256D02*
G01*
X2731810Y5580260D01*
X3371809Y6200256D02*
G01*
X3371809Y5580260D01*
X3371809Y6200256D02*
G01*
X3334923Y6200256D01*
X3168695Y6200256D02*
G01*
X2934924Y6200256D01*
X2768696Y6200256D02*
G01*
X2731810Y6200256D01*
X3168695Y5580260D02*
G01*
X2934924Y5580260D01*
X4451309Y5580260D02*
G01*
X4414423Y5580260D01*
X3848196Y5580260D02*
G01*
X3811310Y5580260D01*
X3811310Y6200256D02*
G01*
X3811310Y5580260D01*
X4451309Y6200256D02*
G01*
X4451309Y5580260D01*
X4451309Y6200256D02*
G01*
X4414423Y6200256D01*
X4248195Y6200256D02*
G01*
X4014424Y6200256D01*
X3848196Y6200256D02*
G01*
X3811310Y6200256D01*
X4248195Y5580260D02*
G01*
X4014424Y5580260D01*
X5530809Y5580260D02*
G01*
X5493923Y5580260D01*
X4927696Y5580260D02*
G01*
X4890810Y5580260D01*
X4890810Y6200256D02*
G01*
X4890810Y5580260D01*
X5530809Y6200256D02*
G01*
X5530809Y5580260D01*
X5530809Y6200256D02*
G01*
X5493923Y6200256D01*
X5327695Y6200256D02*
G01*
X5093924Y6200256D01*
X4927696Y6200256D02*
G01*
X4890810Y6200256D01*
X5327695Y5580260D02*
G01*
X5093924Y5580260D01*
X1212809Y3141860D02*
G01*
X1175923Y3141860D01*
X609696Y3141860D02*
G01*
X572810Y3141860D01*
X572810Y3761856D02*
G01*
X572810Y3141860D01*
X1212809Y3761856D02*
G01*
X1212809Y3141860D01*
X1212809Y3761856D02*
G01*
X1175923Y3761856D01*
X1009695Y3761856D02*
G01*
X775924Y3761856D01*
X609696Y3761856D02*
G01*
X572810Y3761856D01*
X1009695Y3141860D02*
G01*
X775924Y3141860D01*
X2292309Y3141860D02*
G01*
X2255423Y3141860D01*
X1689196Y3141860D02*
G01*
X1652310Y3141860D01*
X1652310Y3761856D02*
G01*
X1652310Y3141860D01*
X2292309Y3761856D02*
G01*
X2292309Y3141860D01*
X2292309Y3761856D02*
G01*
X2255423Y3761856D01*
X2089195Y3761856D02*
G01*
X1855424Y3761856D01*
X1689196Y3761856D02*
G01*
X1652310Y3761856D01*
X2089195Y3141860D02*
G01*
X1855424Y3141860D01*
X3371809Y3141860D02*
G01*
X3334923Y3141860D01*
X2768696Y3141860D02*
G01*
X2731810Y3141860D01*
X2731810Y3761856D02*
G01*
X2731810Y3141860D01*
X3371809Y3761856D02*
G01*
X3371809Y3141860D01*
X3371809Y3761856D02*
G01*
X3334923Y3761856D01*
X3168695Y3761856D02*
G01*
X2934924Y3761856D01*
X2768696Y3761856D02*
G01*
X2731810Y3761856D01*
X3168695Y3141860D02*
G01*
X2934924Y3141860D01*
X4451309Y3141860D02*
G01*
X4414423Y3141860D01*
X3848196Y3141860D02*
G01*
X3811310Y3141860D01*
X3811310Y3761856D02*
G01*
X3811310Y3141860D01*
X4451309Y3761856D02*
G01*
X4451309Y3141860D01*
X4451309Y3761856D02*
G01*
X4414423Y3761856D01*
X4248195Y3761856D02*
G01*
X4014424Y3761856D01*
X3848196Y3761856D02*
G01*
X3811310Y3761856D01*
X4248195Y3141860D02*
G01*
X4014424Y3141860D01*
X5530809Y3141860D02*
G01*
X5493923Y3141860D01*
X4927696Y3141860D02*
G01*
X4890810Y3141860D01*
X4890810Y3761856D02*
G01*
X4890810Y3141860D01*
X5530809Y3761856D02*
G01*
X5530809Y3141860D01*
X5530809Y3761856D02*
G01*
X5493923Y3761856D01*
X5327695Y3761856D02*
G01*
X5093924Y3761856D01*
X4927696Y3761856D02*
G01*
X4890810Y3761856D01*
X5327695Y3141860D02*
G01*
X5093924Y3141860D01*
X1212809Y1909960D02*
G01*
X1175923Y1909960D01*
X609696Y1909960D02*
G01*
X572810Y1909960D01*
X572810Y2529956D02*
G01*
X572810Y1909960D01*
X1212809Y2529956D02*
G01*
X1212809Y1909960D01*
X1212809Y2529956D02*
G01*
X1175923Y2529956D01*
X1009695Y2529956D02*
G01*
X775924Y2529956D01*
X609696Y2529956D02*
G01*
X572810Y2529956D01*
X1009695Y1909960D02*
G01*
X775924Y1909960D01*
X2292309Y1909960D02*
G01*
X2255423Y1909960D01*
X1689196Y1909960D02*
G01*
X1652310Y1909960D01*
X1652310Y2529956D02*
G01*
X1652310Y1909960D01*
X2292309Y2529956D02*
G01*
X2292309Y1909960D01*
X2292309Y2529956D02*
G01*
X2255423Y2529956D01*
X2089195Y2529956D02*
G01*
X1855424Y2529956D01*
X1689196Y2529956D02*
G01*
X1652310Y2529956D01*
X2089195Y1909960D02*
G01*
X1855424Y1909960D01*
X3371809Y1909960D02*
G01*
X3334923Y1909960D01*
X2768696Y1909960D02*
G01*
X2731810Y1909960D01*
X2731810Y2529956D02*
G01*
X2731810Y1909960D01*
X3371809Y2529956D02*
G01*
X3371809Y1909960D01*
X3371809Y2529956D02*
G01*
X3334923Y2529956D01*
X3168695Y2529956D02*
G01*
X2934924Y2529956D01*
X2768696Y2529956D02*
G01*
X2731810Y2529956D01*
X3168695Y1909960D02*
G01*
X2934924Y1909960D01*
X4451309Y1909960D02*
G01*
X4414423Y1909960D01*
X3848196Y1909960D02*
G01*
X3811310Y1909960D01*
X3811310Y2529956D02*
G01*
X3811310Y1909960D01*
X4451309Y2529956D02*
G01*
X4451309Y1909960D01*
X4451309Y2529956D02*
G01*
X4414423Y2529956D01*
X4248195Y2529956D02*
G01*
X4014424Y2529956D01*
X3848196Y2529956D02*
G01*
X3811310Y2529956D01*
X4248195Y1909960D02*
G01*
X4014424Y1909960D01*
X5530809Y1909960D02*
G01*
X5493923Y1909960D01*
X4927696Y1909960D02*
G01*
X4890810Y1909960D01*
X4890810Y2529956D02*
G01*
X4890810Y1909960D01*
X5530809Y2529956D02*
G01*
X5530809Y1909960D01*
X5530809Y2529956D02*
G01*
X5493923Y2529956D01*
X5327695Y2529956D02*
G01*
X5093924Y2529956D01*
X4927696Y2529956D02*
G01*
X4890810Y2529956D01*
X5327695Y1909960D02*
G01*
X5093924Y1909960D01*
X1208821Y690303D02*
G01*
X1171935Y690303D01*
X605708Y690303D02*
G01*
X568822Y690303D01*
X568822Y1310299D02*
G01*
X568822Y690303D01*
X1208821Y1310299D02*
G01*
X1208821Y690303D01*
X1208821Y1310299D02*
G01*
X1171935Y1310299D01*
X1005707Y1310299D02*
G01*
X771936Y1310299D01*
X605708Y1310299D02*
G01*
X568822Y1310299D01*
X1005707Y690303D02*
G01*
X771936Y690303D01*
X2288321Y690303D02*
G01*
X2251435Y690303D01*
X1685208Y690303D02*
G01*
X1648322Y690303D01*
X1648322Y1310299D02*
G01*
X1648322Y690303D01*
X2288321Y1310299D02*
G01*
X2288321Y690303D01*
X2288321Y1310299D02*
G01*
X2251435Y1310299D01*
X2085207Y1310299D02*
G01*
X1851436Y1310299D01*
X1685208Y1310299D02*
G01*
X1648322Y1310299D01*
X2085207Y690303D02*
G01*
X1851436Y690303D01*
X3367821Y690303D02*
G01*
X3330935Y690303D01*
X2764708Y690303D02*
G01*
X2727822Y690303D01*
X2727822Y1310299D02*
G01*
X2727822Y690303D01*
X3367821Y1310299D02*
G01*
X3367821Y690303D01*
X3367821Y1310299D02*
G01*
X3330935Y1310299D01*
X3164707Y1310299D02*
G01*
X2930936Y1310299D01*
X2764708Y1310299D02*
G01*
X2727822Y1310299D01*
X3164707Y690303D02*
G01*
X2930936Y690303D01*
X4447321Y690303D02*
G01*
X4410435Y690303D01*
X3844208Y690303D02*
G01*
X3807322Y690303D01*
X3807322Y1310299D02*
G01*
X3807322Y690303D01*
X4447321Y1310299D02*
G01*
X4447321Y690303D01*
X4447321Y1310299D02*
G01*
X4410435Y1310299D01*
X4244207Y1310299D02*
G01*
X4010436Y1310299D01*
X3844208Y1310299D02*
G01*
X3807322Y1310299D01*
X4244207Y690303D02*
G01*
X4010436Y690303D01*
X5526821Y690303D02*
G01*
X5489935Y690303D01*
X4923708Y690303D02*
G01*
X4886822Y690303D01*
X4886822Y1310299D02*
G01*
X4886822Y690303D01*
X5526821Y1310299D02*
G01*
X5526821Y690303D01*
X5526821Y1310299D02*
G01*
X5489935Y1310299D01*
X5323707Y1310299D02*
G01*
X5089936Y1310299D01*
X4923708Y1310299D02*
G01*
X4886822Y1310299D01*
X5323707Y690303D02*
G01*
X5089936Y690303D01*
G75*
G01
X5404663Y4683760D02*
G03X5404663Y4683760I-193853J0D01*
G75*
G01
X5358917Y4683760D02*
G03X5358917Y4683760I-148107J0D01*
G75*
G01
X4325163Y4683760D02*
G03X4325163Y4683760I-193853J0D01*
G75*
G01
X4279417Y4683760D02*
G03X4279417Y4683760I-148107J0D01*
G75*
G01
X3245663Y4683760D02*
G03X3245663Y4683760I-193853J0D01*
G75*
G01
X3199917Y4683760D02*
G03X3199917Y4683760I-148107J0D01*
G75*
G01
X2166163Y4683760D02*
G03X2166163Y4683760I-193853J0D01*
G75*
G01
X2120417Y4683760D02*
G03X2120417Y4683760I-148107J0D01*
G75*
G01
X1086663Y4683760D02*
G03X1086663Y4683760I-193853J0D01*
G75*
G01
X1040917Y4683760D02*
G03X1040917Y4683760I-148107J0D01*
G75*
G01
X1086663Y5890260D02*
G03X1086663Y5890260I-193853J0D01*
G75*
G01
X1040917Y5890260D02*
G03X1040917Y5890260I-148107J0D01*
G75*
G01
X2166163Y5890260D02*
G03X2166163Y5890260I-193853J0D01*
G75*
G01
X2120417Y5890260D02*
G03X2120417Y5890260I-148107J0D01*
G75*
G01
X3245663Y5890260D02*
G03X3245663Y5890260I-193853J0D01*
G75*
G01
X3199917Y5890260D02*
G03X3199917Y5890260I-148107J0D01*
G75*
G01
X4325163Y5890260D02*
G03X4325163Y5890260I-193853J0D01*
G75*
G01
X4279417Y5890260D02*
G03X4279417Y5890260I-148107J0D01*
G75*
G01
X5404663Y5890260D02*
G03X5404663Y5890260I-193853J0D01*
G75*
G01
X5358917Y5890260D02*
G03X5358917Y5890260I-148107J0D01*
G75*
G01
X1086663Y3451860D02*
G03X1086663Y3451860I-193853J0D01*
G75*
G01
X1040917Y3451860D02*
G03X1040917Y3451860I-148107J0D01*
G75*
G01
X2166163Y3451860D02*
G03X2166163Y3451860I-193853J0D01*
G75*
G01
X2120417Y3451860D02*
G03X2120417Y3451860I-148107J0D01*
G75*
G01
X3245663Y3451860D02*
G03X3245663Y3451860I-193853J0D01*
G75*
G01
X3199917Y3451860D02*
G03X3199917Y3451860I-148107J0D01*
G75*
G01
X4325163Y3451860D02*
G03X4325163Y3451860I-193853J0D01*
G75*
G01
X4279417Y3451860D02*
G03X4279417Y3451860I-148107J0D01*
G75*
G01
X5404663Y3451860D02*
G03X5404663Y3451860I-193853J0D01*
G75*
G01
X5358917Y3451860D02*
G03X5358917Y3451860I-148107J0D01*
G75*
G01
X1086663Y2219960D02*
G03X1086663Y2219960I-193853J0D01*
G75*
G01
X1040917Y2219960D02*
G03X1040917Y2219960I-148107J0D01*
G75*
G01
X2166163Y2219960D02*
G03X2166163Y2219960I-193853J0D01*
G75*
G01
X2120417Y2219960D02*
G03X2120417Y2219960I-148107J0D01*
G75*
G01
X3245663Y2219960D02*
G03X3245663Y2219960I-193853J0D01*
G75*
G01
X3199917Y2219960D02*
G03X3199917Y2219960I-148107J0D01*
G75*
G01
X4325163Y2219960D02*
G03X4325163Y2219960I-193853J0D01*
G75*
G01
X4279417Y2219960D02*
G03X4279417Y2219960I-148107J0D01*
G75*
G01
X5404663Y2219960D02*
G03X5404663Y2219960I-193853J0D01*
G75*
G01
X5358917Y2219960D02*
G03X5358917Y2219960I-148107J0D01*
G75*
G01
X1082675Y1000303D02*
G03X1082675Y1000303I-193853J0D01*
G75*
G01
X1036930Y1000303D02*
G03X1036930Y1000303I-148107J0D01*
G75*
G01
X2162175Y1000303D02*
G03X2162175Y1000303I-193853J0D01*
G75*
G01
X2116430Y1000303D02*
G03X2116430Y1000303I-148107J0D01*
G75*
G01
X3241675Y1000303D02*
G03X3241675Y1000303I-193853J0D01*
G75*
G01
X3195930Y1000303D02*
G03X3195930Y1000303I-148107J0D01*
G75*
G01
X4321175Y1000303D02*
G03X4321175Y1000303I-193853J0D01*
G75*
G01
X4275430Y1000303D02*
G03X4275430Y1000303I-148107J0D01*
G75*
G01
X5400675Y1000303D02*
G03X5400675Y1000303I-193853J0D01*
G75*
G01
X5354930Y1000303D02*
G03X5354930Y1000303I-148107J0D01*
D11*
X4006850Y1734820D02*
G01*
X4260850Y1734820D01*
X4260850Y1480820D01*
X4006850Y1480820D01*
X4006850Y1734820D01*
X4006850Y2966720D02*
G01*
X4260850Y2966720D01*
X4260850Y2712720D01*
X4006850Y2712720D01*
X4006850Y2966720D01*
X4006850Y4198620D02*
G01*
X4260850Y4198620D01*
X4260850Y3944620D01*
X4006850Y3944620D01*
X4006850Y4198620D01*
X4006850Y5405120D02*
G01*
X4260850Y5405120D01*
X4260850Y5151120D01*
X4006850Y5151120D01*
X4006850Y5405120D01*
M02*
