G04 Layer: TopSolderMaskLayer*
G04 EasyEDA v6.5.22, 2022-11-13 20:11:36*
G04 637256469d5b4e0fbaa5dacb6fe29907,a2731e2ff01b41edbee4f831c5fec297,10*
G04 Gerber Generator version 0.2*
G04 Scale: 100 percent, Rotated: No, Reflected: No *
G04 Dimensions in millimeters *
G04 leading zeros omitted , absolute positions ,4 integer and 5 decimal *
%FSLAX45Y45*%
%MOMM*%

%AMMACRO1*1,1,$1,$2,$3*1,1,$1,$4,$5*1,1,$1,0-$2,0-$3*1,1,$1,0-$4,0-$5*20,1,$1,$2,$3,$4,$5,0*20,1,$1,$4,$5,0-$2,0-$3,0*20,1,$1,0-$2,0-$3,0-$4,0-$5,0*20,1,$1,0-$4,0-$5,$2,$3,0*4,1,4,$2,$3,$4,$5,0-$2,0-$3,0-$4,0-$5,$2,$3,0*%
%ADD10MACRO1,0.1016X0.5X0.55X0.5X-0.55*%
%ADD11MACRO1,0.1016X-0.7725X0.4985X0.7725X0.4985*%
%ADD12MACRO1,0.1016X0.6X1.05X0.6X-1.05*%
%ADD13C,2.1016*%

%LPD*%
D10*
G01*
X1422400Y2036305D03*
G01*
X1422400Y2383294D03*
G01*
X2501900Y2036305D03*
G01*
X2501900Y2383294D03*
G01*
X3581400Y2036305D03*
G01*
X3581400Y2383294D03*
G01*
X4660900Y2036305D03*
G01*
X4660900Y2383294D03*
G01*
X5740400Y2036305D03*
G01*
X5740400Y2383294D03*
G01*
X1421790Y814844D03*
G01*
X1421790Y1161834D03*
G01*
X2497912Y816648D03*
G01*
X2497912Y1163637D03*
G01*
X3577412Y816648D03*
G01*
X3577412Y1163637D03*
G01*
X4656912Y816648D03*
G01*
X4656912Y1163637D03*
G01*
X5736412Y816648D03*
G01*
X5736412Y1163637D03*
G01*
X5740400Y3268205D03*
G01*
X5740400Y3615194D03*
G01*
X2501900Y5706605D03*
G01*
X2501900Y6053594D03*
G01*
X3581400Y5706605D03*
G01*
X3581400Y6053594D03*
G01*
X4660900Y5706605D03*
G01*
X4660900Y6053594D03*
G01*
X5740400Y5706605D03*
G01*
X5740400Y6053594D03*
G01*
X1422400Y4500105D03*
G01*
X1422400Y4847094D03*
G01*
X2501900Y4500105D03*
G01*
X2501900Y4847094D03*
G01*
X3581400Y4500105D03*
G01*
X3581400Y4847094D03*
G01*
X4660900Y4500105D03*
G01*
X4660900Y4847094D03*
G01*
X5740400Y4500105D03*
G01*
X5740400Y4847094D03*
G01*
X1422400Y3268205D03*
G01*
X1422400Y3615194D03*
G01*
X2501900Y3268205D03*
G01*
X2501900Y3615194D03*
G01*
X3581400Y3268205D03*
G01*
X3581400Y3615194D03*
G01*
X4660900Y3268205D03*
G01*
X4660900Y3615194D03*
G01*
X1422400Y5706605D03*
G01*
X1422400Y6053594D03*
D11*
G01*
X687146Y7924901D03*
G01*
X687146Y7746898D03*
G01*
X1014653Y7746898D03*
G01*
X1014653Y7924901D03*
G01*
X687146Y6985101D03*
G01*
X687146Y6807098D03*
G01*
X1014653Y6807098D03*
G01*
X1014653Y6985101D03*
G01*
X5119446Y6985101D03*
G01*
X5119446Y6807098D03*
G01*
X5446953Y6807098D03*
G01*
X5446953Y6985101D03*
G01*
X5119446Y7924901D03*
G01*
X5119446Y7746898D03*
G01*
X5446953Y7746898D03*
G01*
X5446953Y7924901D03*
G01*
X5119446Y8864701D03*
G01*
X5119446Y8686698D03*
G01*
X5446953Y8686698D03*
G01*
X5446953Y8864701D03*
G01*
X687146Y8864701D03*
G01*
X687146Y8686698D03*
G01*
X1014653Y8686698D03*
G01*
X1014653Y8864701D03*
D12*
G01*
X5010810Y4383759D03*
G01*
X5010810Y4983759D03*
G01*
X5410809Y4383759D03*
G01*
X5410809Y4983759D03*
G01*
X3931310Y4383759D03*
G01*
X3931310Y4983759D03*
G01*
X4331309Y4383759D03*
G01*
X4331309Y4983759D03*
G01*
X2851810Y4383759D03*
G01*
X2851810Y4983759D03*
G01*
X3251809Y4383759D03*
G01*
X3251809Y4983759D03*
G01*
X1772310Y4383759D03*
G01*
X1772310Y4983759D03*
G01*
X2172309Y4383759D03*
G01*
X2172309Y4983759D03*
G01*
X692810Y4383759D03*
G01*
X692810Y4983759D03*
G01*
X1092809Y4383759D03*
G01*
X1092809Y4983759D03*
G01*
X692810Y5590259D03*
G01*
X692810Y6190259D03*
G01*
X1092809Y5590259D03*
G01*
X1092809Y6190259D03*
G01*
X1772310Y5590259D03*
G01*
X1772310Y6190259D03*
G01*
X2172309Y5590259D03*
G01*
X2172309Y6190259D03*
G01*
X2851810Y5590259D03*
G01*
X2851810Y6190259D03*
G01*
X3251809Y5590259D03*
G01*
X3251809Y6190259D03*
G01*
X3931310Y5590259D03*
G01*
X3931310Y6190259D03*
G01*
X4331309Y5590259D03*
G01*
X4331309Y6190259D03*
G01*
X5010810Y5590259D03*
G01*
X5010810Y6190259D03*
G01*
X5410809Y5590259D03*
G01*
X5410809Y6190259D03*
G01*
X692810Y3151859D03*
G01*
X692810Y3751859D03*
G01*
X1092809Y3151859D03*
G01*
X1092809Y3751859D03*
G01*
X1772310Y3151859D03*
G01*
X1772310Y3751859D03*
G01*
X2172309Y3151859D03*
G01*
X2172309Y3751859D03*
G01*
X2851810Y3151859D03*
G01*
X2851810Y3751859D03*
G01*
X3251809Y3151859D03*
G01*
X3251809Y3751859D03*
G01*
X3931310Y3151859D03*
G01*
X3931310Y3751859D03*
G01*
X4331309Y3151859D03*
G01*
X4331309Y3751859D03*
G01*
X5010810Y3151859D03*
G01*
X5010810Y3751859D03*
G01*
X5410809Y3151859D03*
G01*
X5410809Y3751859D03*
G01*
X692810Y1919959D03*
G01*
X692810Y2519959D03*
G01*
X1092809Y1919959D03*
G01*
X1092809Y2519959D03*
G01*
X1772310Y1919959D03*
G01*
X1772310Y2519959D03*
G01*
X2172309Y1919959D03*
G01*
X2172309Y2519959D03*
G01*
X2851810Y1919959D03*
G01*
X2851810Y2519959D03*
G01*
X3251809Y1919959D03*
G01*
X3251809Y2519959D03*
G01*
X3931310Y1919959D03*
G01*
X3931310Y2519959D03*
G01*
X4331309Y1919959D03*
G01*
X4331309Y2519959D03*
G01*
X5010810Y1919959D03*
G01*
X5010810Y2519959D03*
G01*
X5410809Y1919959D03*
G01*
X5410809Y2519959D03*
G01*
X688822Y700302D03*
G01*
X688822Y1300302D03*
G01*
X1088821Y700302D03*
G01*
X1088821Y1300302D03*
G01*
X1768322Y700302D03*
G01*
X1768322Y1300302D03*
G01*
X2168321Y700302D03*
G01*
X2168321Y1300302D03*
G01*
X2847822Y700302D03*
G01*
X2847822Y1300302D03*
G01*
X3247821Y700302D03*
G01*
X3247821Y1300302D03*
G01*
X3927322Y700302D03*
G01*
X3927322Y1300302D03*
G01*
X4327321Y700302D03*
G01*
X4327321Y1300302D03*
G01*
X5006822Y700302D03*
G01*
X5006822Y1300302D03*
G01*
X5406821Y700302D03*
G01*
X5406821Y1300302D03*
D13*
G01*
X2654300Y9067800D03*
G01*
X2908300Y9067800D03*
G01*
X3162300Y9067800D03*
G01*
X3416300Y9067800D03*
G01*
X4965700Y11557000D03*
G01*
X4711700Y11557000D03*
G01*
X4457700Y11557000D03*
G01*
X4203700Y11557000D03*
G01*
X3949700Y11557000D03*
G01*
X3695700Y11557000D03*
G01*
X3441700Y11557000D03*
G01*
X3187700Y11557000D03*
G01*
X2933700Y11557000D03*
G01*
X2679700Y11557000D03*
G01*
X2425700Y11557000D03*
G01*
X2171700Y11557000D03*
G01*
X4965700Y9525000D03*
G01*
X4711700Y9525000D03*
G01*
X4457700Y9525000D03*
G01*
X4203700Y9525000D03*
G01*
X3949700Y9525000D03*
G01*
X3695700Y9525000D03*
G01*
X3441700Y9525000D03*
G01*
X3187700Y9525000D03*
G01*
X2933700Y9525000D03*
G01*
X2679700Y9525000D03*
G01*
X2425700Y9525000D03*
G01*
X2171700Y9525000D03*
G01*
X1917700Y9525000D03*
G01*
X1663700Y9525000D03*
G01*
X1409700Y9525000D03*
G01*
X1155700Y9525000D03*
M02*
