G04 Layer: BottomSilkscreenLayer*
G04 EasyEDA v6.5.22, 2022-11-13 20:13:56*
G04 b6ff6bc9bab445359ce0fdefb00da0e9,a2731e2ff01b41edbee4f831c5fec297,10*
G04 Gerber Generator version 0.2*
G04 Scale: 100 percent, Rotated: No, Reflected: No *
G04 Dimensions in millimeters *
G04 leading zeros omitted , absolute positions ,4 integer and 5 decimal *
%FSLAX45Y45*%
%MOMM*%

%ADD10C,0.2032*%

%LPD*%
D10*
X3901772Y10625394D02*
G01*
X3901772Y10477611D01*
X3911010Y10449902D01*
X3920246Y10440667D01*
X3938719Y10431432D01*
X3957193Y10431432D01*
X3975663Y10440667D01*
X3984901Y10449902D01*
X3994137Y10477611D01*
X3994137Y10496085D01*
X3840812Y10625394D02*
G01*
X3840812Y10431432D01*
X3840812Y10431432D02*
G01*
X3729977Y10431432D01*
X3530472Y10579211D02*
G01*
X3539708Y10597685D01*
X3558181Y10616158D01*
X3576652Y10625394D01*
X3613599Y10625394D01*
X3632072Y10616158D01*
X3650543Y10597685D01*
X3659781Y10579211D01*
X3669017Y10551502D01*
X3669017Y10505323D01*
X3659781Y10477611D01*
X3650543Y10459140D01*
X3632072Y10440667D01*
X3613599Y10431432D01*
X3576652Y10431432D01*
X3558181Y10440667D01*
X3539708Y10459140D01*
X3530472Y10477611D01*
X3377148Y10625394D02*
G01*
X3377148Y10477611D01*
X3386383Y10449902D01*
X3395621Y10440667D01*
X3414092Y10431432D01*
X3432566Y10431432D01*
X3451039Y10440667D01*
X3460275Y10449902D01*
X3469513Y10477611D01*
X3469513Y10496085D01*
X3316188Y10625394D02*
G01*
X3316188Y10431432D01*
X3316188Y10431432D02*
G01*
X3205352Y10431432D01*
X3005846Y10579211D02*
G01*
X3015081Y10597685D01*
X3033555Y10616158D01*
X3052028Y10625394D01*
X3088972Y10625394D01*
X3107446Y10616158D01*
X3125919Y10597685D01*
X3135155Y10579211D01*
X3144393Y10551502D01*
X3144393Y10505323D01*
X3135155Y10477611D01*
X3125919Y10459140D01*
X3107446Y10440667D01*
X3088972Y10431432D01*
X3052028Y10431432D01*
X3033555Y10440667D01*
X3015081Y10459140D01*
X3005846Y10477611D01*
X2852521Y10625394D02*
G01*
X2852521Y10477611D01*
X2861759Y10449902D01*
X2870995Y10440667D01*
X2889468Y10431432D01*
X2907941Y10431432D01*
X2926412Y10440667D01*
X2935650Y10449902D01*
X2944886Y10477611D01*
X2944886Y10496085D01*
X2791561Y10625394D02*
G01*
X2791561Y10431432D01*
X2791561Y10431432D02*
G01*
X2680726Y10431432D01*
X2481221Y10579211D02*
G01*
X2490457Y10597685D01*
X2508930Y10616158D01*
X2527401Y10625394D01*
X2564348Y10625394D01*
X2582821Y10616158D01*
X2601292Y10597685D01*
X2610530Y10579211D01*
X2619766Y10551502D01*
X2619766Y10505323D01*
X2610530Y10477611D01*
X2601292Y10459140D01*
X2582821Y10440667D01*
X2564348Y10431432D01*
X2527401Y10431432D01*
X2508930Y10440667D01*
X2490457Y10459140D01*
X2481221Y10477611D01*
X2327897Y10625394D02*
G01*
X2327897Y10477611D01*
X2337132Y10449902D01*
X2346370Y10440667D01*
X2364841Y10431432D01*
X2383315Y10431432D01*
X2401788Y10440667D01*
X2411023Y10449902D01*
X2420261Y10477611D01*
X2420261Y10496085D01*
X2266937Y10625394D02*
G01*
X2266937Y10431432D01*
X2266937Y10431432D02*
G01*
X2156101Y10431432D01*
X1956595Y10579211D02*
G01*
X1965833Y10597685D01*
X1984303Y10616158D01*
X2002777Y10625394D01*
X2039721Y10625394D01*
X2058195Y10616158D01*
X2076668Y10597685D01*
X2085903Y10579211D01*
X2095141Y10551502D01*
X2095141Y10505323D01*
X2085903Y10477611D01*
X2076668Y10459140D01*
X2058195Y10440667D01*
X2039721Y10431432D01*
X2002777Y10431432D01*
X1984303Y10440667D01*
X1965833Y10459140D01*
X1956595Y10477611D01*
M02*
