G04 Layer: BottomSolderMaskLayer*
G04 EasyEDA v6.5.22, 2022-11-13 20:13:56*
G04 b6ff6bc9bab445359ce0fdefb00da0e9,a2731e2ff01b41edbee4f831c5fec297,10*
G04 Gerber Generator version 0.2*
G04 Scale: 100 percent, Rotated: No, Reflected: No *
G04 Dimensions in millimeters *
G04 leading zeros omitted , absolute positions ,4 integer and 5 decimal *
%FSLAX45Y45*%
%MOMM*%

%ADD10C,0.5080*%
%ADD11C,0.2032*%
%ADD12C,2.1016*%

%LPD*%
G36*
X3866794Y4621276D02*
G01*
X3842512Y4620768D01*
X3818178Y4619752D01*
X3793947Y4618177D01*
X3769664Y4616094D01*
X3751529Y4614164D01*
X3733393Y4611928D01*
X3703269Y4607610D01*
X3685286Y4604613D01*
X3655364Y4598974D01*
X3637483Y4595215D01*
X3619652Y4591151D01*
X3590086Y4583734D01*
X3572459Y4578908D01*
X3549091Y4572050D01*
X3514293Y4560773D01*
X3485591Y4550511D01*
X3457194Y4539538D01*
X3429101Y4527753D01*
X3417925Y4522825D01*
X3395776Y4512564D01*
X3368446Y4499152D01*
X3341471Y4484928D01*
X3325469Y4476038D01*
X3304387Y4463796D01*
X3278428Y4447794D01*
X3252876Y4431030D01*
X3232810Y4417161D01*
X3213049Y4402785D01*
X3193643Y4387951D01*
X3168548Y4367682D01*
X3154273Y4355439D01*
X3141268Y4343654D01*
X3129432Y4332224D01*
X3118764Y4321200D01*
X3109315Y4310583D01*
X3101035Y4300270D01*
X3093974Y4290314D01*
X3088030Y4280611D01*
X3083255Y4271264D01*
X3079648Y4262120D01*
X3077159Y4253280D01*
X3075787Y4244644D01*
X3075533Y4240377D01*
X3075584Y4236212D01*
X3076448Y4227982D01*
X3077311Y4223918D01*
X3078429Y4219905D01*
X3081477Y4211980D01*
X3085642Y4204208D01*
X3090875Y4196537D01*
X3097174Y4188968D01*
X3103321Y4182465D01*
X3109417Y4176776D01*
X3115564Y4171848D01*
X3121710Y4167682D01*
X3124809Y4165904D01*
X3131210Y4163009D01*
X3134461Y4161840D01*
X3141116Y4160215D01*
X3148126Y4159402D01*
X3155442Y4159453D01*
X3163163Y4160418D01*
X3171342Y4162298D01*
X3180080Y4165092D01*
X3189325Y4168800D01*
X3199282Y4173474D01*
X3209848Y4179163D01*
X3221228Y4185767D01*
X3233369Y4193387D01*
X3246424Y4202074D01*
X3260344Y4211726D01*
X3275279Y4222445D01*
X3291230Y4234230D01*
X3318154Y4254601D01*
X3343249Y4272584D01*
X3363569Y4286300D01*
X3384143Y4299458D01*
X3394506Y4305808D01*
X3420668Y4321048D01*
X3436518Y4329734D01*
X3463188Y4343501D01*
X3490163Y4356303D01*
X3511905Y4365904D01*
X3528314Y4372711D01*
X3544824Y4379214D01*
X3572510Y4389272D01*
X3600399Y4398416D01*
X3622801Y4405071D01*
X3639718Y4409694D01*
X3668014Y4416602D01*
X3679342Y4419142D01*
X3702100Y4423714D01*
X3724960Y4427728D01*
X3753561Y4431893D01*
X3770782Y4433976D01*
X3799484Y4436668D01*
X3822496Y4438142D01*
X3845509Y4439056D01*
X3874312Y4439412D01*
X3903065Y4438802D01*
X3920286Y4437989D01*
X3937508Y4436872D01*
X3960418Y4434840D01*
X3983278Y4432198D01*
X4000398Y4429861D01*
X4017467Y4427220D01*
X4040174Y4423105D01*
X4057142Y4419650D01*
X4085285Y4413199D01*
X4102049Y4408881D01*
X4129938Y4400905D01*
X4152087Y4393895D01*
X4174083Y4386326D01*
X4185005Y4382312D01*
X4212183Y4371594D01*
X4239107Y4360011D01*
X4265726Y4347464D01*
X4291990Y4334052D01*
X4302455Y4328414D01*
X4318000Y4319676D01*
X4333392Y4310634D01*
X4358792Y4294835D01*
X4373880Y4284878D01*
X4398619Y4267606D01*
X4423003Y4249420D01*
X4449013Y4228693D01*
X4462424Y4218279D01*
X4475480Y4208729D01*
X4488180Y4199991D01*
X4500524Y4192066D01*
X4512462Y4184954D01*
X4523994Y4178655D01*
X4535119Y4173220D01*
X4545838Y4168546D01*
X4556099Y4164736D01*
X4565954Y4161739D01*
X4575302Y4159554D01*
X4584242Y4158234D01*
X4592675Y4157675D01*
X4600651Y4157979D01*
X4604410Y4158386D01*
X4611624Y4159910D01*
X4618329Y4162247D01*
X4624476Y4165396D01*
X4630115Y4169359D01*
X4632706Y4171594D01*
X4637532Y4176826D01*
X4641799Y4182821D01*
X4645456Y4189628D01*
X4648555Y4197248D01*
X4651044Y4205681D01*
X4652924Y4214977D01*
X4654194Y4225036D01*
X4654804Y4235907D01*
X4654854Y4244340D01*
X4654245Y4249928D01*
X4653026Y4255668D01*
X4651248Y4261561D01*
X4648962Y4267657D01*
X4646066Y4273905D01*
X4642662Y4280306D01*
X4638751Y4286808D01*
X4634280Y4293514D01*
X4629353Y4300321D01*
X4623968Y4307230D01*
X4611776Y4321352D01*
X4605020Y4328617D01*
X4590237Y4343247D01*
X4573879Y4358182D01*
X4560620Y4369511D01*
X4541723Y4384700D01*
X4521606Y4399991D01*
X4494784Y4419041D01*
X4472127Y4434179D01*
X4442561Y4452823D01*
X4411726Y4471111D01*
X4386376Y4485335D01*
X4353864Y4502556D01*
X4320794Y4518964D01*
X4293971Y4531410D01*
X4267047Y4543196D01*
X4240072Y4554270D01*
X4226610Y4559503D01*
X4206443Y4566920D01*
X4179773Y4576064D01*
X4153408Y4584242D01*
X4140403Y4587951D01*
X4114698Y4594555D01*
X4084218Y4601108D01*
X4060342Y4605578D01*
X4030319Y4610354D01*
X4006240Y4613554D01*
X3982110Y4616196D01*
X3963924Y4617821D01*
X3945788Y4619142D01*
X3921506Y4620412D01*
X3897223Y4621123D01*
G37*
G36*
X3849319Y4287977D02*
G01*
X3823614Y4287367D01*
X3798315Y4285996D01*
X3773424Y4283811D01*
X3748887Y4280916D01*
X3724706Y4277156D01*
X3712718Y4275023D01*
X3688994Y4270095D01*
X3671417Y4265879D01*
X3648201Y4259529D01*
X3625240Y4252417D01*
X3608171Y4246524D01*
X3596894Y4242308D01*
X3580028Y4235653D01*
X3557727Y4226052D01*
X3535629Y4215587D01*
X3513683Y4204258D01*
X3502761Y4198315D01*
X3486454Y4188968D01*
X3464814Y4175760D01*
X3448659Y4165295D01*
X3433013Y4154728D01*
X3418332Y4144365D01*
X3404514Y4134307D01*
X3391662Y4124401D01*
X3379673Y4114749D01*
X3368598Y4105249D01*
X3358387Y4096004D01*
X3349142Y4086910D01*
X3340709Y4078020D01*
X3333242Y4069283D01*
X3326587Y4060748D01*
X3320846Y4052366D01*
X3315970Y4044137D01*
X3312007Y4036110D01*
X3308908Y4028186D01*
X3306622Y4020413D01*
X3305251Y4012793D01*
X3304743Y4005275D01*
X3305048Y3997909D01*
X3306216Y3990644D01*
X3307130Y3987037D01*
X3309620Y3979926D01*
X3312922Y3972915D01*
X3317087Y3966006D01*
X3322065Y3959199D01*
X3327857Y3952494D01*
X3334512Y3945839D01*
X3341370Y3939997D01*
X3348329Y3935069D01*
X3355390Y3931107D01*
X3362706Y3928110D01*
X3370275Y3926078D01*
X3374136Y3925417D01*
X3382162Y3924909D01*
X3390595Y3925366D01*
X3399434Y3926890D01*
X3408730Y3929430D01*
X3418586Y3932986D01*
X3429050Y3937609D01*
X3440125Y3943299D01*
X3451910Y3950055D01*
X3464458Y3957878D01*
X3477768Y3966870D01*
X3491890Y3976928D01*
X3517493Y3995928D01*
X3538524Y4010710D01*
X3559606Y4024376D01*
X3575456Y4033824D01*
X3586073Y4039819D01*
X3596690Y4045508D01*
X3607409Y4050944D01*
X3618128Y4056075D01*
X3634333Y4063288D01*
X3656177Y4071924D01*
X3678377Y4079544D01*
X3689604Y4082948D01*
X3700932Y4086047D01*
X3718153Y4090314D01*
X3741572Y4095089D01*
X3765499Y4098848D01*
X3790035Y4101592D01*
X3802532Y4102658D01*
X3828084Y4103979D01*
X3841140Y4104284D01*
X3861054Y4104335D01*
X3888333Y4103573D01*
X3916578Y4101896D01*
X3944365Y4099356D01*
X3957878Y4097782D01*
X3984142Y4093972D01*
X3996944Y4091736D01*
X4015740Y4087977D01*
X4040022Y4082186D01*
X4051858Y4078986D01*
X4063492Y4075531D01*
X4074922Y4071823D01*
X4091736Y4065828D01*
X4108145Y4059326D01*
X4124198Y4052265D01*
X4145026Y4042003D01*
X4165244Y4030726D01*
X4175150Y4024731D01*
X4194606Y4011929D01*
X4213606Y3998112D01*
X4232148Y3983228D01*
X4252772Y3965752D01*
X4264202Y3957116D01*
X4275531Y3949496D01*
X4286656Y3942892D01*
X4297629Y3937254D01*
X4308398Y3932580D01*
X4318863Y3928872D01*
X4329023Y3926179D01*
X4338878Y3924401D01*
X4348327Y3923588D01*
X4357420Y3923690D01*
X4366006Y3924757D01*
X4374184Y3926789D01*
X4378045Y3928110D01*
X4381804Y3929684D01*
X4388866Y3933545D01*
X4392168Y3935780D01*
X4395317Y3938270D01*
X4401210Y3943959D01*
X4406392Y3950512D01*
X4408728Y3954119D01*
X4412843Y3961993D01*
X4414621Y3966260D01*
X4417618Y3975506D01*
X4419803Y3985564D01*
X4421124Y3996537D01*
X4421479Y4002328D01*
X4421479Y4011269D01*
X4420717Y4017314D01*
X4419193Y4023563D01*
X4416958Y4030116D01*
X4413961Y4036822D01*
X4410354Y4043781D01*
X4406087Y4050842D01*
X4401159Y4058107D01*
X4395673Y4065524D01*
X4389577Y4073042D01*
X4382922Y4080713D01*
X4375708Y4088434D01*
X4368038Y4096207D01*
X4359859Y4104081D01*
X4351223Y4112006D01*
X4342180Y4119930D01*
X4322826Y4135780D01*
X4301998Y4151477D01*
X4279900Y4166971D01*
X4256786Y4182008D01*
X4232757Y4196588D01*
X4208068Y4210456D01*
X4195521Y4217111D01*
X4176522Y4226661D01*
X4163771Y4232706D01*
X4144568Y4241342D01*
X4119016Y4251756D01*
X4106265Y4256532D01*
X4093616Y4260951D01*
X4081068Y4265015D01*
X4068622Y4268673D01*
X4056329Y4271975D01*
X4046880Y4274210D01*
X4029811Y4277156D01*
X4007713Y4279900D01*
X3981805Y4282389D01*
X3953052Y4284522D01*
X3922725Y4286250D01*
X3884066Y4287621D01*
X3868877Y4287926D01*
G37*
G36*
X3870299Y3968496D02*
G01*
X3858209Y3968292D01*
X3846169Y3967734D01*
X3834180Y3966870D01*
X3822192Y3965701D01*
X3810304Y3964178D01*
X3798468Y3962400D01*
X3786682Y3960266D01*
X3774998Y3957828D01*
X3763365Y3955084D01*
X3751884Y3952087D01*
X3740454Y3948734D01*
X3729177Y3945077D01*
X3718051Y3941165D01*
X3707028Y3936898D01*
X3696106Y3932377D01*
X3685387Y3927551D01*
X3674821Y3922420D01*
X3664407Y3917035D01*
X3654196Y3911346D01*
X3639210Y3902252D01*
X3624681Y3892550D01*
X3615232Y3885692D01*
X3606037Y3878579D01*
X3597097Y3871214D01*
X3588359Y3863543D01*
X3578656Y3854399D01*
X3573576Y3849166D01*
X3564534Y3838803D01*
X3560521Y3833672D01*
X3556863Y3828542D01*
X3553561Y3823411D01*
X3550615Y3818331D01*
X3548024Y3813251D01*
X3545789Y3808171D01*
X3543909Y3803142D01*
X3542385Y3798112D01*
X3541217Y3793134D01*
X3540353Y3788105D01*
X3539896Y3783177D01*
X3539744Y3778199D01*
X3539998Y3773271D01*
X3540556Y3768344D01*
X3541522Y3763467D01*
X3542792Y3758539D01*
X3544468Y3753713D01*
X3546449Y3748836D01*
X3548786Y3744010D01*
X3551478Y3739184D01*
X3554526Y3734409D01*
X3557930Y3729634D01*
X3561689Y3724859D01*
X3565804Y3720084D01*
X3573576Y3712006D01*
X3581044Y3705301D01*
X3584752Y3702405D01*
X3588461Y3699865D01*
X3592169Y3697681D01*
X3595878Y3695852D01*
X3599687Y3694328D01*
X3603498Y3693160D01*
X3607460Y3692347D01*
X3611473Y3691890D01*
X3615639Y3691788D01*
X3619957Y3691991D01*
X3624376Y3692601D01*
X3633825Y3694836D01*
X3644137Y3698544D01*
X3655466Y3703675D01*
X3667912Y3710279D01*
X3681628Y3718356D01*
X3710686Y3737000D01*
X3722166Y3744010D01*
X3733800Y3750513D01*
X3745433Y3756456D01*
X3757168Y3761892D01*
X3768953Y3766718D01*
X3780790Y3771087D01*
X3792626Y3774846D01*
X3804513Y3778097D01*
X3816451Y3780790D01*
X3828338Y3782974D01*
X3840226Y3784549D01*
X3852113Y3785615D01*
X3863949Y3786124D01*
X3875735Y3786124D01*
X3887520Y3785565D01*
X3899204Y3784396D01*
X3910837Y3782720D01*
X3922420Y3780536D01*
X3933901Y3777742D01*
X3945280Y3774389D01*
X3956558Y3770528D01*
X3967683Y3766058D01*
X3978706Y3761079D01*
X3991203Y3754729D01*
X4004970Y3747262D01*
X4018026Y3739692D01*
X4030065Y3732326D01*
X4040784Y3725265D01*
X4049826Y3718814D01*
X4056887Y3713124D01*
X4061663Y3708450D01*
X4065371Y3703269D01*
X4068013Y3700373D01*
X4070858Y3697884D01*
X4074007Y3695750D01*
X4077411Y3694023D01*
X4081018Y3692601D01*
X4084828Y3691534D01*
X4088841Y3690823D01*
X4093006Y3690416D01*
X4097324Y3690315D01*
X4101795Y3690518D01*
X4106367Y3691026D01*
X4115765Y3692906D01*
X4125366Y3695801D01*
X4135069Y3699662D01*
X4144721Y3704437D01*
X4154170Y3710025D01*
X4163212Y3716324D01*
X4171797Y3723284D01*
X4179671Y3730802D01*
X4186783Y3738829D01*
X4189984Y3742994D01*
X4192930Y3747262D01*
X4195572Y3751630D01*
X4199991Y3760520D01*
X4201718Y3765042D01*
X4203090Y3769614D01*
X4204106Y3774236D01*
X4204716Y3778859D01*
X4204919Y3783482D01*
X4204716Y3786530D01*
X4204208Y3789730D01*
X4203395Y3793083D01*
X4200753Y3800094D01*
X4196994Y3807612D01*
X4192066Y3815486D01*
X4186123Y3823715D01*
X4179214Y3832148D01*
X4171442Y3840835D01*
X4162856Y3849573D01*
X4153509Y3858463D01*
X4143552Y3867302D01*
X4133037Y3876040D01*
X4122064Y3884676D01*
X4110634Y3893108D01*
X4098899Y3901287D01*
X4086910Y3909110D01*
X4074718Y3916578D01*
X4062476Y3923588D01*
X4050182Y3930040D01*
X4037939Y3935882D01*
X4025849Y3941114D01*
X4013962Y3945585D01*
X4002278Y3949395D01*
X3990492Y3952798D01*
X3978656Y3955897D01*
X3966718Y3958590D01*
X3954779Y3960977D01*
X3942740Y3963060D01*
X3930700Y3964787D01*
X3912615Y3966768D01*
X3894480Y3967987D01*
X3882339Y3968394D01*
G37*
G36*
X3872534Y3654806D02*
G01*
X3867302Y3654602D01*
X3862019Y3653993D01*
X3856736Y3653028D01*
X3851401Y3651656D01*
X3845966Y3649929D01*
X3840479Y3647795D01*
X3834942Y3645255D01*
X3829253Y3642309D01*
X3823462Y3639007D01*
X3817518Y3635298D01*
X3805224Y3626662D01*
X3798824Y3621735D01*
X3794201Y3617874D01*
X3789883Y3613759D01*
X3785717Y3609340D01*
X3781856Y3604717D01*
X3778199Y3599840D01*
X3774795Y3594760D01*
X3771646Y3589528D01*
X3768750Y3584092D01*
X3766108Y3578504D01*
X3763721Y3572814D01*
X3761587Y3567023D01*
X3759708Y3561181D01*
X3758082Y3555237D01*
X3755644Y3543198D01*
X3754272Y3531209D01*
X3753967Y3519322D01*
X3754272Y3513480D01*
X3754831Y3507689D01*
X3755644Y3502050D01*
X3756761Y3496564D01*
X3758133Y3491229D01*
X3759860Y3486048D01*
X3761841Y3481070D01*
X3764076Y3476294D01*
X3766667Y3471722D01*
X3769512Y3467455D01*
X3772662Y3463442D01*
X3776167Y3459683D01*
X3781653Y3454704D01*
X3784955Y3450996D01*
X3788003Y3446475D01*
X3790696Y3441090D01*
X3793134Y3434740D01*
X3795318Y3427272D01*
X3797198Y3418687D01*
X3798874Y3408883D01*
X3800348Y3397707D01*
X3801567Y3385108D01*
X3802583Y3371037D01*
X3803396Y3355340D01*
X3804462Y3318814D01*
X3804869Y3274822D01*
X3804920Y3089605D01*
X3721557Y3089605D01*
X3721557Y2989630D01*
X4538218Y2989630D01*
X4538218Y1572971D01*
X3804920Y1572971D01*
X3804920Y2989630D01*
X3721557Y2989630D01*
X3721557Y1472946D01*
X4621580Y1472946D01*
X4622241Y1940153D01*
X4624781Y3081274D01*
X3938219Y3090316D01*
X3938371Y3296513D01*
X3939032Y3333292D01*
X3940251Y3365195D01*
X3942130Y3392678D01*
X3943299Y3404920D01*
X3944670Y3416147D01*
X3946194Y3426510D01*
X3947922Y3435959D01*
X3949801Y3444646D01*
X3951935Y3452571D01*
X3954221Y3459784D01*
X3956761Y3466337D01*
X3959504Y3472230D01*
X3962450Y3477615D01*
X3967226Y3485387D01*
X3970121Y3490823D01*
X3972661Y3496360D01*
X3974846Y3501999D01*
X3976674Y3507740D01*
X3978198Y3513582D01*
X3979418Y3519474D01*
X3980230Y3525367D01*
X3980789Y3531362D01*
X3980992Y3537356D01*
X3980434Y3549345D01*
X3979672Y3555339D01*
X3978605Y3561232D01*
X3977233Y3567125D01*
X3975557Y3572916D01*
X3971290Y3584244D01*
X3968699Y3589782D01*
X3965803Y3595115D01*
X3962654Y3600348D01*
X3959199Y3605428D01*
X3955440Y3610356D01*
X3951427Y3615029D01*
X3947160Y3619550D01*
X3942587Y3623818D01*
X3937762Y3627882D01*
X3932631Y3631692D01*
X3920947Y3639312D01*
X3915308Y3642563D01*
X3904284Y3647897D01*
X3898849Y3649979D01*
X3893515Y3651707D01*
X3888232Y3653078D01*
X3882999Y3654044D01*
X3877767Y3654602D01*
G37*
G36*
X4754930Y3222955D02*
G01*
X4754930Y3056280D01*
X5371592Y3056280D01*
X5371592Y2639618D01*
X4954879Y2639618D01*
X4954879Y3056280D01*
X4754930Y3056280D01*
X4754930Y2622956D01*
X4938217Y2622956D01*
X4938217Y2439619D01*
X5371084Y2439619D01*
X5379923Y1481277D01*
X5571591Y1471320D01*
X5571591Y3222955D01*
G37*
G36*
X3838244Y2939643D02*
G01*
X3838244Y2339644D01*
X4504893Y2339644D01*
X4504893Y2939643D01*
G37*
G36*
X4454906Y2289606D02*
G01*
X4440021Y2289302D01*
X4433773Y2288844D01*
X4428337Y2288082D01*
X4423613Y2286965D01*
X4419549Y2285542D01*
X4416094Y2283663D01*
X4413250Y2281275D01*
X4410913Y2278430D01*
X4408982Y2274976D01*
X4407560Y2270912D01*
X4406493Y2266188D01*
X4405731Y2260752D01*
X4405223Y2254554D01*
X4404918Y2239619D01*
X4405223Y2224735D01*
X4405731Y2218486D01*
X4406493Y2213051D01*
X4407560Y2208326D01*
X4408982Y2204262D01*
X4410913Y2200859D01*
X4413250Y2197963D01*
X4416094Y2195626D01*
X4419549Y2193747D01*
X4423613Y2192274D01*
X4428337Y2191207D01*
X4433773Y2190445D01*
X4440021Y2189937D01*
X4454906Y2189632D01*
X4469790Y2189937D01*
X4476038Y2190445D01*
X4481474Y2191207D01*
X4486198Y2192274D01*
X4490262Y2193747D01*
X4493717Y2195626D01*
X4496562Y2197963D01*
X4498949Y2200859D01*
X4500829Y2204262D01*
X4502251Y2208326D01*
X4503318Y2213051D01*
X4504080Y2218486D01*
X4504588Y2224735D01*
X4504893Y2239619D01*
X4504588Y2254554D01*
X4504080Y2260752D01*
X4503318Y2266188D01*
X4502251Y2270912D01*
X4500829Y2274976D01*
X4498949Y2278430D01*
X4496562Y2281275D01*
X4493717Y2283663D01*
X4490262Y2285542D01*
X4486198Y2286965D01*
X4481474Y2288082D01*
X4476038Y2288844D01*
X4462780Y2289556D01*
G37*
G36*
X4321556Y2289606D02*
G01*
X4306671Y2289302D01*
X4300474Y2288844D01*
X4294987Y2288082D01*
X4290263Y2286965D01*
X4286199Y2285542D01*
X4282795Y2283663D01*
X4279900Y2281275D01*
X4277563Y2278430D01*
X4275683Y2274976D01*
X4274210Y2270912D01*
X4273143Y2266188D01*
X4272381Y2260752D01*
X4271670Y2247493D01*
X4271670Y2231745D01*
X4272381Y2218486D01*
X4273143Y2213051D01*
X4274210Y2208326D01*
X4275683Y2204262D01*
X4277563Y2200859D01*
X4279900Y2197963D01*
X4282795Y2195626D01*
X4286199Y2193747D01*
X4290263Y2192274D01*
X4294987Y2191207D01*
X4300474Y2190445D01*
X4306671Y2189937D01*
X4321556Y2189632D01*
X4336491Y2189937D01*
X4342688Y2190445D01*
X4348124Y2191207D01*
X4352848Y2192274D01*
X4356912Y2193747D01*
X4360367Y2195626D01*
X4363262Y2197963D01*
X4365599Y2200859D01*
X4367479Y2204262D01*
X4368952Y2208326D01*
X4370019Y2213051D01*
X4370781Y2218486D01*
X4371492Y2231745D01*
X4371492Y2247493D01*
X4370781Y2260752D01*
X4370019Y2266188D01*
X4368952Y2270912D01*
X4367479Y2274976D01*
X4365599Y2278430D01*
X4363262Y2281275D01*
X4360367Y2283663D01*
X4356912Y2285542D01*
X4352848Y2286965D01*
X4348124Y2288082D01*
X4342688Y2288844D01*
X4329480Y2289556D01*
G37*
G36*
X4170476Y2289606D02*
G01*
X4155135Y2289352D01*
X4148785Y2288946D01*
X4143248Y2288235D01*
X4138523Y2287270D01*
X4134510Y2286000D01*
X4131208Y2284272D01*
X4128566Y2282139D01*
X4126484Y2279548D01*
X4124960Y2276398D01*
X4123893Y2272690D01*
X4123334Y2268321D01*
X4123182Y2263292D01*
X4123842Y2251100D01*
X4125823Y2235301D01*
X4127347Y2227783D01*
X4129328Y2221230D01*
X4131716Y2215489D01*
X4134662Y2210511D01*
X4138218Y2206294D01*
X4142486Y2202738D01*
X4147413Y2199792D01*
X4153154Y2197354D01*
X4159758Y2195423D01*
X4167225Y2193899D01*
X4175760Y2192680D01*
X4189526Y2191410D01*
X4195267Y2191207D01*
X4200296Y2191410D01*
X4204614Y2191969D01*
X4208322Y2192985D01*
X4211472Y2194509D01*
X4214114Y2196592D01*
X4216247Y2199284D01*
X4217924Y2202586D01*
X4219244Y2206599D01*
X4220210Y2211324D01*
X4220870Y2216810D01*
X4221530Y2230374D01*
X4221276Y2253894D01*
X4220768Y2260295D01*
X4220057Y2265883D01*
X4218990Y2270709D01*
X4217517Y2274874D01*
X4215638Y2278380D01*
X4213250Y2281275D01*
X4210304Y2283663D01*
X4206798Y2285542D01*
X4202684Y2287016D01*
X4197807Y2288082D01*
X4192219Y2288844D01*
X4178604Y2289556D01*
G37*
G36*
X4038244Y2289606D02*
G01*
X4023309Y2289302D01*
X4017111Y2288844D01*
X4011676Y2288082D01*
X4006951Y2286965D01*
X4002887Y2285542D01*
X3999433Y2283663D01*
X3996588Y2281275D01*
X3994200Y2278430D01*
X3992321Y2274976D01*
X3990898Y2270912D01*
X3989781Y2266188D01*
X3989070Y2260752D01*
X3988562Y2254554D01*
X3988257Y2239619D01*
X3988562Y2224735D01*
X3989070Y2218486D01*
X3989781Y2213051D01*
X3990898Y2208326D01*
X3992321Y2204262D01*
X3994200Y2200859D01*
X3996588Y2197963D01*
X3999433Y2195626D01*
X4002887Y2193747D01*
X4006951Y2192274D01*
X4011676Y2191207D01*
X4017111Y2190445D01*
X4023309Y2189937D01*
X4038244Y2189632D01*
X4053128Y2189937D01*
X4059377Y2190445D01*
X4064812Y2191207D01*
X4069537Y2192274D01*
X4073601Y2193747D01*
X4077055Y2195626D01*
X4079900Y2197963D01*
X4082237Y2200859D01*
X4084116Y2204262D01*
X4085590Y2208326D01*
X4086656Y2213051D01*
X4087418Y2218486D01*
X4087926Y2224735D01*
X4088231Y2239619D01*
X4087926Y2254554D01*
X4087418Y2260752D01*
X4086656Y2266188D01*
X4085590Y2270912D01*
X4084116Y2274976D01*
X4082237Y2278430D01*
X4079900Y2281275D01*
X4077055Y2283663D01*
X4073601Y2285542D01*
X4069537Y2286965D01*
X4064812Y2288082D01*
X4059377Y2288844D01*
X4046118Y2289556D01*
G37*
G36*
X3889349Y2289606D02*
G01*
X3873957Y2289302D01*
X3867556Y2288844D01*
X3861968Y2288082D01*
X3857142Y2287016D01*
X3852976Y2285542D01*
X3849471Y2283663D01*
X3846576Y2281275D01*
X3844188Y2278380D01*
X3842308Y2274874D01*
X3840835Y2270709D01*
X3839768Y2265883D01*
X3839006Y2260295D01*
X3838295Y2246680D01*
X3838295Y2230374D01*
X3838498Y2223160D01*
X3838956Y2216810D01*
X3839616Y2211324D01*
X3840581Y2206599D01*
X3841902Y2202586D01*
X3843578Y2199284D01*
X3845712Y2196592D01*
X3848354Y2194509D01*
X3851452Y2192985D01*
X3855212Y2191969D01*
X3859529Y2191410D01*
X3864559Y2191207D01*
X3870299Y2191410D01*
X3884066Y2192680D01*
X3892550Y2193899D01*
X3900068Y2195423D01*
X3906672Y2197354D01*
X3912412Y2199792D01*
X3917340Y2202738D01*
X3921556Y2206294D01*
X3925112Y2210511D01*
X3928110Y2215489D01*
X3930497Y2221230D01*
X3932478Y2227783D01*
X3934002Y2235301D01*
X3935171Y2243785D01*
X3936441Y2257602D01*
X3936644Y2263292D01*
X3936492Y2268321D01*
X3935882Y2272690D01*
X3934866Y2276398D01*
X3933342Y2279548D01*
X3931259Y2282139D01*
X3928567Y2284272D01*
X3925265Y2286000D01*
X3921302Y2287270D01*
X3916527Y2288235D01*
X3911041Y2288946D01*
X3897477Y2289556D01*
G37*
G36*
X2936341Y2189632D02*
G01*
X2946552Y2047951D01*
X3388258Y2038654D01*
X3388258Y1606296D01*
X2936240Y1606296D01*
X2946552Y1481277D01*
X3529888Y1481277D01*
X3538931Y2189632D01*
G37*
G36*
X2138222Y2189632D02*
G01*
X2138222Y2039620D01*
X2704896Y2039620D01*
X2704896Y1622958D01*
X2271572Y1622958D01*
X2271572Y2039620D01*
X2138222Y2039620D01*
X2138222Y1472946D01*
X2854909Y1472946D01*
X2854909Y2189632D01*
G37*
G36*
X1237589Y2189632D02*
G01*
X1246581Y1481277D01*
X1388262Y1471066D01*
X1388262Y2039620D01*
X1520799Y2039620D01*
X1529892Y1481277D01*
X1671574Y1471066D01*
X1671574Y2039620D01*
X1821586Y2039620D01*
X1821586Y1472946D01*
X1954936Y1472946D01*
X1954936Y2189632D01*
G37*
G36*
X571601Y2189632D02*
G01*
X571601Y2039620D01*
X1004925Y2039620D01*
X1004925Y1906270D01*
X571601Y1906270D01*
X571601Y1472946D01*
X1154938Y1472946D01*
X1154938Y1622958D01*
X721563Y1622958D01*
X721563Y1772970D01*
X1154938Y1772970D01*
X1154938Y2189632D01*
G37*
G36*
X4454906Y2156307D02*
G01*
X4440021Y2155952D01*
X4433773Y2155494D01*
X4428337Y2154732D01*
X4423613Y2153666D01*
X4419549Y2152192D01*
X4416094Y2150313D01*
X4413250Y2147976D01*
X4410913Y2145080D01*
X4408982Y2141626D01*
X4407560Y2137562D01*
X4406493Y2132838D01*
X4405731Y2127402D01*
X4405223Y2121204D01*
X4404918Y2106320D01*
X4405223Y2091385D01*
X4405731Y2085187D01*
X4406493Y2079752D01*
X4407560Y2075027D01*
X4408982Y2070963D01*
X4410913Y2067509D01*
X4413250Y2064613D01*
X4416094Y2062276D01*
X4419549Y2060397D01*
X4423613Y2058924D01*
X4428337Y2057857D01*
X4433773Y2057095D01*
X4447032Y2056384D01*
X4462780Y2056384D01*
X4476038Y2057095D01*
X4481474Y2057857D01*
X4486198Y2058924D01*
X4490262Y2060397D01*
X4493717Y2062276D01*
X4496562Y2064613D01*
X4498949Y2067509D01*
X4500829Y2070963D01*
X4502251Y2075027D01*
X4503318Y2079752D01*
X4504080Y2085187D01*
X4504588Y2091385D01*
X4504893Y2106320D01*
X4504588Y2121204D01*
X4504080Y2127402D01*
X4503318Y2132838D01*
X4502251Y2137562D01*
X4500829Y2141626D01*
X4498949Y2145080D01*
X4496562Y2147976D01*
X4493717Y2150313D01*
X4490262Y2152192D01*
X4486198Y2153666D01*
X4481474Y2154732D01*
X4476038Y2155494D01*
X4462780Y2156206D01*
G37*
G36*
X4321556Y2156307D02*
G01*
X4306671Y2155952D01*
X4300474Y2155494D01*
X4294987Y2154732D01*
X4290263Y2153666D01*
X4286199Y2152192D01*
X4282795Y2150313D01*
X4279900Y2147976D01*
X4277563Y2145080D01*
X4275683Y2141626D01*
X4274210Y2137562D01*
X4273143Y2132838D01*
X4272381Y2127402D01*
X4271670Y2114194D01*
X4271670Y2098395D01*
X4272381Y2085187D01*
X4273143Y2079752D01*
X4274210Y2075027D01*
X4275683Y2070963D01*
X4277563Y2067509D01*
X4279900Y2064613D01*
X4282795Y2062276D01*
X4286199Y2060397D01*
X4290263Y2058924D01*
X4294987Y2057857D01*
X4300474Y2057095D01*
X4313682Y2056384D01*
X4329480Y2056384D01*
X4342688Y2057095D01*
X4348124Y2057857D01*
X4352848Y2058924D01*
X4356912Y2060397D01*
X4360367Y2062276D01*
X4363262Y2064613D01*
X4365599Y2067509D01*
X4367479Y2070963D01*
X4368952Y2075027D01*
X4370019Y2079752D01*
X4370781Y2085187D01*
X4371492Y2098395D01*
X4371492Y2114194D01*
X4370781Y2127402D01*
X4370019Y2132838D01*
X4368952Y2137562D01*
X4367479Y2141626D01*
X4365599Y2145080D01*
X4363262Y2147976D01*
X4360367Y2150313D01*
X4356912Y2152192D01*
X4352848Y2153666D01*
X4348124Y2154732D01*
X4342688Y2155494D01*
X4329480Y2156206D01*
G37*
G36*
X4171594Y2156307D02*
G01*
X4156659Y2155952D01*
X4150461Y2155494D01*
X4145026Y2154732D01*
X4140301Y2153666D01*
X4136237Y2152192D01*
X4132783Y2150313D01*
X4129887Y2147976D01*
X4127550Y2145080D01*
X4125671Y2141626D01*
X4124198Y2137562D01*
X4123131Y2132838D01*
X4122369Y2127402D01*
X4121658Y2114194D01*
X4121658Y2098395D01*
X4122369Y2085187D01*
X4123131Y2079752D01*
X4124198Y2075027D01*
X4125671Y2070963D01*
X4127550Y2067509D01*
X4129887Y2064613D01*
X4132783Y2062276D01*
X4136237Y2060397D01*
X4140301Y2058924D01*
X4145026Y2057857D01*
X4150461Y2057095D01*
X4163669Y2056384D01*
X4179468Y2056384D01*
X4192676Y2057095D01*
X4198112Y2057857D01*
X4202887Y2058924D01*
X4206951Y2060397D01*
X4210354Y2062276D01*
X4213250Y2064613D01*
X4215587Y2067509D01*
X4217466Y2070963D01*
X4218940Y2075027D01*
X4220006Y2079752D01*
X4220768Y2085187D01*
X4221480Y2098395D01*
X4221480Y2114194D01*
X4220768Y2127402D01*
X4220006Y2132838D01*
X4218940Y2137562D01*
X4217466Y2141626D01*
X4215587Y2145080D01*
X4213250Y2147976D01*
X4210354Y2150313D01*
X4206951Y2152192D01*
X4202887Y2153666D01*
X4198112Y2154732D01*
X4192676Y2155494D01*
X4179468Y2156206D01*
G37*
G36*
X4038244Y2156307D02*
G01*
X4023309Y2155952D01*
X4017111Y2155494D01*
X4011676Y2154732D01*
X4006951Y2153666D01*
X4002887Y2152192D01*
X3999433Y2150313D01*
X3996588Y2147976D01*
X3994200Y2145080D01*
X3992321Y2141626D01*
X3990898Y2137562D01*
X3989781Y2132838D01*
X3989070Y2127402D01*
X3988562Y2121204D01*
X3988257Y2106320D01*
X3988562Y2091385D01*
X3989070Y2085187D01*
X3989781Y2079752D01*
X3990898Y2075027D01*
X3992321Y2070963D01*
X3994200Y2067509D01*
X3996588Y2064613D01*
X3999433Y2062276D01*
X4002887Y2060397D01*
X4006951Y2058924D01*
X4011676Y2057857D01*
X4017111Y2057095D01*
X4030370Y2056384D01*
X4046118Y2056384D01*
X4059377Y2057095D01*
X4064812Y2057857D01*
X4069537Y2058924D01*
X4073601Y2060397D01*
X4077055Y2062276D01*
X4079900Y2064613D01*
X4082237Y2067509D01*
X4084116Y2070963D01*
X4085590Y2075027D01*
X4086656Y2079752D01*
X4087418Y2085187D01*
X4087926Y2091385D01*
X4088231Y2106320D01*
X4087926Y2121204D01*
X4087418Y2127402D01*
X4086656Y2132838D01*
X4085590Y2137562D01*
X4084116Y2141626D01*
X4082237Y2145080D01*
X4079900Y2147976D01*
X4077055Y2150313D01*
X4073601Y2152192D01*
X4069537Y2153666D01*
X4064812Y2154732D01*
X4059377Y2155494D01*
X4046118Y2156206D01*
G37*
G36*
X3888232Y2156307D02*
G01*
X3873347Y2155952D01*
X3867099Y2155494D01*
X3861663Y2154732D01*
X3856939Y2153666D01*
X3852875Y2152192D01*
X3849471Y2150313D01*
X3846576Y2147976D01*
X3844239Y2145080D01*
X3842359Y2141626D01*
X3840886Y2137562D01*
X3839819Y2132838D01*
X3839057Y2127402D01*
X3838549Y2121204D01*
X3838244Y2106320D01*
X3838549Y2091385D01*
X3839057Y2085187D01*
X3839819Y2079752D01*
X3840886Y2075027D01*
X3842359Y2070963D01*
X3844239Y2067509D01*
X3846576Y2064613D01*
X3849471Y2062276D01*
X3852875Y2060397D01*
X3856939Y2058924D01*
X3861663Y2057857D01*
X3867099Y2057095D01*
X3880358Y2056384D01*
X3896106Y2056384D01*
X3909364Y2057095D01*
X3914800Y2057857D01*
X3919524Y2058924D01*
X3923588Y2060397D01*
X3927043Y2062276D01*
X3929887Y2064613D01*
X3932275Y2067509D01*
X3934155Y2070963D01*
X3935577Y2075027D01*
X3936695Y2079752D01*
X3937457Y2085187D01*
X3938168Y2098395D01*
X3938168Y2114194D01*
X3937457Y2127402D01*
X3936695Y2132838D01*
X3935577Y2137562D01*
X3934155Y2141626D01*
X3932275Y2145080D01*
X3929887Y2147976D01*
X3927043Y2150313D01*
X3923588Y2152192D01*
X3919524Y2153666D01*
X3914800Y2154732D01*
X3909364Y2155494D01*
X3896106Y2156206D01*
G37*
G36*
X4321556Y2022957D02*
G01*
X4306214Y2022652D01*
X4299864Y2022195D01*
X4294327Y2021382D01*
X4289602Y2020265D01*
X4285538Y2018690D01*
X4282135Y2016556D01*
X4279290Y2013915D01*
X4277055Y2010664D01*
X4275277Y2006701D01*
X4273905Y2001977D01*
X4272889Y1996389D01*
X4272229Y1989937D01*
X4271619Y1974138D01*
X4271619Y1955139D01*
X4272229Y1939289D01*
X4272889Y1932838D01*
X4273905Y1927301D01*
X4275277Y1922576D01*
X4277055Y1918614D01*
X4279290Y1915312D01*
X4282135Y1912670D01*
X4285538Y1910588D01*
X4289602Y1909013D01*
X4294327Y1907844D01*
X4299864Y1907082D01*
X4306214Y1906574D01*
X4321556Y1906270D01*
X4336948Y1906574D01*
X4343298Y1907082D01*
X4348784Y1907844D01*
X4353560Y1909013D01*
X4357624Y1910588D01*
X4361027Y1912670D01*
X4363821Y1915312D01*
X4366107Y1918614D01*
X4367885Y1922576D01*
X4369257Y1927301D01*
X4370222Y1932838D01*
X4370882Y1939289D01*
X4371543Y1955139D01*
X4371543Y1974138D01*
X4370882Y1989937D01*
X4370222Y1996389D01*
X4369257Y2001977D01*
X4367885Y2006701D01*
X4366107Y2010664D01*
X4363821Y2013915D01*
X4361027Y2016556D01*
X4357624Y2018690D01*
X4353560Y2020265D01*
X4348784Y2021382D01*
X4343298Y2022195D01*
X4329734Y2022906D01*
G37*
G36*
X4038244Y2022957D02*
G01*
X4022851Y2022652D01*
X4016552Y2022195D01*
X4011015Y2021382D01*
X4006240Y2020265D01*
X4002176Y2018690D01*
X3998772Y2016556D01*
X3995978Y2013915D01*
X3993692Y2010664D01*
X3991914Y2006701D01*
X3990543Y2001977D01*
X3989578Y1996389D01*
X3988917Y1989937D01*
X3988308Y1974138D01*
X3988308Y1955139D01*
X3988917Y1939289D01*
X3989578Y1932838D01*
X3990543Y1927301D01*
X3991914Y1922576D01*
X3993692Y1918614D01*
X3995978Y1915312D01*
X3998772Y1912670D01*
X4002176Y1910588D01*
X4006240Y1909013D01*
X4011015Y1907844D01*
X4016552Y1907082D01*
X4022851Y1906574D01*
X4038244Y1906270D01*
X4053586Y1906574D01*
X4059936Y1907082D01*
X4065473Y1907844D01*
X4070248Y1909013D01*
X4074312Y1910588D01*
X4077715Y1912670D01*
X4080510Y1915312D01*
X4082796Y1918614D01*
X4084574Y1922576D01*
X4085894Y1927301D01*
X4086910Y1932838D01*
X4087571Y1939289D01*
X4088180Y1955139D01*
X4088180Y1974138D01*
X4087571Y1989937D01*
X4086910Y1996389D01*
X4085894Y2001977D01*
X4084574Y2006701D01*
X4082796Y2010664D01*
X4080510Y2013915D01*
X4077715Y2016556D01*
X4074312Y2018690D01*
X4070248Y2020265D01*
X4065473Y2021382D01*
X4059936Y2022195D01*
X4046372Y2022906D01*
G37*
G36*
X3880408Y2022957D02*
G01*
X3867912Y2022551D01*
X3862679Y2021992D01*
X3858107Y2021078D01*
X3854145Y2019757D01*
X3850690Y2017979D01*
X3847795Y2015743D01*
X3845356Y2012950D01*
X3843375Y2009495D01*
X3841750Y2005380D01*
X3840530Y2000554D01*
X3839616Y1994966D01*
X3838956Y1988515D01*
X3838295Y1972818D01*
X3838448Y1945233D01*
X3838854Y1937715D01*
X3839464Y1931162D01*
X3840327Y1925624D01*
X3841546Y1920951D01*
X3843172Y1917090D01*
X3845255Y1913991D01*
X3847795Y1911604D01*
X3850894Y1909876D01*
X3854602Y1908708D01*
X3858971Y1908048D01*
X3864000Y1907844D01*
X3869842Y1908048D01*
X3883914Y1909368D01*
X3890670Y1910384D01*
X3897020Y1911908D01*
X3902964Y1913839D01*
X3908450Y1916175D01*
X3913530Y1918970D01*
X3918153Y1922119D01*
X3922318Y1925675D01*
X3926078Y1929536D01*
X3929329Y1933803D01*
X3932072Y1938375D01*
X3934358Y1943303D01*
X3936187Y1948484D01*
X3937457Y1953971D01*
X3938270Y1959711D01*
X3938524Y1965706D01*
X3938270Y1971954D01*
X3937508Y1978406D01*
X3936187Y1985060D01*
X3934307Y1991918D01*
X3931818Y1998929D01*
X3929126Y2003755D01*
X3924909Y2008276D01*
X3919474Y2012340D01*
X3912920Y2015896D01*
X3905554Y2018842D01*
X3897528Y2021078D01*
X3889095Y2022449D01*
G37*
G36*
X4479086Y2021433D02*
G01*
X4473244Y2021230D01*
X4459071Y2019909D01*
X4446016Y2017979D01*
X4440478Y2016760D01*
X4435602Y2015337D01*
X4431334Y2013610D01*
X4427575Y2011578D01*
X4424375Y2009190D01*
X4421682Y2006396D01*
X4419396Y2003196D01*
X4417568Y1999488D01*
X4416094Y1995220D01*
X4414977Y1990445D01*
X4414164Y1985010D01*
X4413605Y1978914D01*
X4413250Y1964639D01*
X4413605Y1950313D01*
X4414164Y1944268D01*
X4414977Y1938832D01*
X4416094Y1934006D01*
X4417568Y1929790D01*
X4419396Y1926082D01*
X4421682Y1922830D01*
X4424375Y1920087D01*
X4427575Y1917700D01*
X4431334Y1915668D01*
X4435602Y1913940D01*
X4440478Y1912518D01*
X4446016Y1911299D01*
X4452213Y1910232D01*
X4466590Y1908556D01*
X4473244Y1907997D01*
X4479086Y1907844D01*
X4484166Y1907997D01*
X4488535Y1908657D01*
X4492294Y1909876D01*
X4495393Y1911654D01*
X4497933Y1914093D01*
X4500016Y1917242D01*
X4501642Y1921154D01*
X4502861Y1925929D01*
X4503724Y1931568D01*
X4504334Y1938223D01*
X4504842Y1954682D01*
X4504842Y1974545D01*
X4504334Y1991004D01*
X4503724Y1997659D01*
X4502861Y2003348D01*
X4501642Y2008124D01*
X4500016Y2012035D01*
X4497933Y2015185D01*
X4495393Y2017623D01*
X4492294Y2019401D01*
X4488535Y2020570D01*
X4484166Y2021230D01*
G37*
G36*
X4195775Y2021433D02*
G01*
X4189933Y2021230D01*
X4175760Y2019909D01*
X4162653Y2017979D01*
X4157167Y2016760D01*
X4152290Y2015337D01*
X4147972Y2013610D01*
X4144264Y2011578D01*
X4141063Y2009190D01*
X4138320Y2006396D01*
X4136085Y2003196D01*
X4134205Y1999488D01*
X4132732Y1995220D01*
X4131614Y1990445D01*
X4130801Y1985010D01*
X4129989Y1972157D01*
X4129989Y1957120D01*
X4130801Y1944268D01*
X4131614Y1938832D01*
X4132732Y1934006D01*
X4134205Y1929790D01*
X4136085Y1926082D01*
X4138320Y1922830D01*
X4141063Y1920087D01*
X4144264Y1917700D01*
X4147972Y1915668D01*
X4152290Y1913940D01*
X4157167Y1912518D01*
X4162653Y1911299D01*
X4168851Y1910232D01*
X4183278Y1908556D01*
X4189933Y1907997D01*
X4195775Y1907844D01*
X4200855Y1907997D01*
X4205224Y1908657D01*
X4208932Y1909876D01*
X4212031Y1911654D01*
X4214622Y1914093D01*
X4216654Y1917242D01*
X4218279Y1921154D01*
X4219498Y1925929D01*
X4220413Y1931568D01*
X4220972Y1938223D01*
X4221530Y1954682D01*
X4221530Y1974545D01*
X4220972Y1991004D01*
X4220413Y1997659D01*
X4219498Y2003348D01*
X4218279Y2008124D01*
X4216654Y2012035D01*
X4214622Y2015185D01*
X4212031Y2017623D01*
X4208932Y2019401D01*
X4205224Y2020570D01*
X4200855Y2021230D01*
G37*
G36*
X4454906Y1872945D02*
G01*
X4440021Y1872640D01*
X4433773Y1872132D01*
X4428337Y1871421D01*
X4423613Y1870303D01*
X4419549Y1868881D01*
X4416094Y1867001D01*
X4413250Y1864614D01*
X4410913Y1861769D01*
X4408982Y1858314D01*
X4407560Y1854250D01*
X4406493Y1849526D01*
X4405731Y1844090D01*
X4405223Y1837893D01*
X4404918Y1822957D01*
X4405223Y1808073D01*
X4405731Y1801825D01*
X4406493Y1796389D01*
X4407560Y1791665D01*
X4408982Y1787601D01*
X4410913Y1784146D01*
X4413250Y1781302D01*
X4416094Y1778965D01*
X4419549Y1777085D01*
X4423613Y1775612D01*
X4428337Y1774545D01*
X4433773Y1773783D01*
X4440021Y1773275D01*
X4454906Y1772970D01*
X4469790Y1773275D01*
X4476038Y1773783D01*
X4481474Y1774545D01*
X4486198Y1775612D01*
X4490262Y1777085D01*
X4493717Y1778965D01*
X4496562Y1781302D01*
X4498949Y1784146D01*
X4500829Y1787601D01*
X4502251Y1791665D01*
X4503318Y1796389D01*
X4504080Y1801825D01*
X4504588Y1808073D01*
X4504893Y1822957D01*
X4504588Y1837893D01*
X4504080Y1844090D01*
X4503318Y1849526D01*
X4502251Y1854250D01*
X4500829Y1858314D01*
X4498949Y1861769D01*
X4496562Y1864614D01*
X4493717Y1867001D01*
X4490262Y1868881D01*
X4486198Y1870303D01*
X4481474Y1871421D01*
X4476038Y1872132D01*
X4469790Y1872640D01*
G37*
G36*
X4321556Y1872945D02*
G01*
X4306671Y1872640D01*
X4300474Y1872132D01*
X4294987Y1871421D01*
X4290263Y1870303D01*
X4286199Y1868881D01*
X4282795Y1867001D01*
X4279900Y1864614D01*
X4277563Y1861769D01*
X4275683Y1858314D01*
X4274210Y1854250D01*
X4273143Y1849526D01*
X4272381Y1844090D01*
X4271670Y1830832D01*
X4271670Y1815084D01*
X4272381Y1801825D01*
X4273143Y1796389D01*
X4274210Y1791665D01*
X4275683Y1787601D01*
X4277563Y1784146D01*
X4279900Y1781302D01*
X4282795Y1778965D01*
X4286199Y1777085D01*
X4290263Y1775612D01*
X4294987Y1774545D01*
X4300474Y1773783D01*
X4306671Y1773275D01*
X4321556Y1772970D01*
X4336491Y1773275D01*
X4342688Y1773783D01*
X4348124Y1774545D01*
X4352848Y1775612D01*
X4356912Y1777085D01*
X4360367Y1778965D01*
X4363262Y1781302D01*
X4365599Y1784146D01*
X4367479Y1787601D01*
X4368952Y1791665D01*
X4370019Y1796389D01*
X4370781Y1801825D01*
X4371492Y1815084D01*
X4371492Y1830832D01*
X4370781Y1844090D01*
X4370019Y1849526D01*
X4368952Y1854250D01*
X4367479Y1858314D01*
X4365599Y1861769D01*
X4363262Y1864614D01*
X4360367Y1867001D01*
X4356912Y1868881D01*
X4352848Y1870303D01*
X4348124Y1871421D01*
X4342688Y1872132D01*
X4336491Y1872640D01*
G37*
G36*
X4171594Y1872945D02*
G01*
X4156659Y1872640D01*
X4150461Y1872132D01*
X4145026Y1871421D01*
X4140301Y1870303D01*
X4136237Y1868881D01*
X4132783Y1867001D01*
X4129887Y1864614D01*
X4127550Y1861769D01*
X4125671Y1858314D01*
X4124198Y1854250D01*
X4123131Y1849526D01*
X4122369Y1844090D01*
X4121658Y1830832D01*
X4121658Y1815084D01*
X4122369Y1801825D01*
X4123131Y1796389D01*
X4124198Y1791665D01*
X4125671Y1787601D01*
X4127550Y1784146D01*
X4129887Y1781302D01*
X4132783Y1778965D01*
X4136237Y1777085D01*
X4140301Y1775612D01*
X4145026Y1774545D01*
X4150461Y1773783D01*
X4156659Y1773275D01*
X4171594Y1772970D01*
X4186478Y1773275D01*
X4192676Y1773783D01*
X4198112Y1774545D01*
X4202887Y1775612D01*
X4206951Y1777085D01*
X4210354Y1778965D01*
X4213250Y1781302D01*
X4215587Y1784146D01*
X4217466Y1787601D01*
X4218940Y1791665D01*
X4220006Y1796389D01*
X4220768Y1801825D01*
X4221480Y1815084D01*
X4221480Y1830832D01*
X4220768Y1844090D01*
X4220006Y1849526D01*
X4218940Y1854250D01*
X4217466Y1858314D01*
X4215587Y1861769D01*
X4213250Y1864614D01*
X4210354Y1867001D01*
X4206951Y1868881D01*
X4202887Y1870303D01*
X4198112Y1871421D01*
X4192676Y1872132D01*
X4186478Y1872640D01*
G37*
G36*
X4038244Y1872945D02*
G01*
X4023309Y1872640D01*
X4017111Y1872132D01*
X4011676Y1871421D01*
X4006951Y1870303D01*
X4002887Y1868881D01*
X3999433Y1867001D01*
X3996588Y1864614D01*
X3994200Y1861769D01*
X3992321Y1858314D01*
X3990898Y1854250D01*
X3989781Y1849526D01*
X3989070Y1844090D01*
X3988562Y1837893D01*
X3988257Y1822957D01*
X3988562Y1808073D01*
X3989070Y1801825D01*
X3989781Y1796389D01*
X3990898Y1791665D01*
X3992321Y1787601D01*
X3994200Y1784146D01*
X3996588Y1781302D01*
X3999433Y1778965D01*
X4002887Y1777085D01*
X4006951Y1775612D01*
X4011676Y1774545D01*
X4017111Y1773783D01*
X4023309Y1773275D01*
X4038244Y1772970D01*
X4053128Y1773275D01*
X4059377Y1773783D01*
X4064812Y1774545D01*
X4069537Y1775612D01*
X4073601Y1777085D01*
X4077055Y1778965D01*
X4079900Y1781302D01*
X4082237Y1784146D01*
X4084116Y1787601D01*
X4085590Y1791665D01*
X4086656Y1796389D01*
X4087418Y1801825D01*
X4087926Y1808073D01*
X4088231Y1822957D01*
X4087926Y1837893D01*
X4087418Y1844090D01*
X4086656Y1849526D01*
X4085590Y1854250D01*
X4084116Y1858314D01*
X4082237Y1861769D01*
X4079900Y1864614D01*
X4077055Y1867001D01*
X4073601Y1868881D01*
X4069537Y1870303D01*
X4064812Y1871421D01*
X4059377Y1872132D01*
X4053128Y1872640D01*
G37*
G36*
X3888232Y1872945D02*
G01*
X3873347Y1872640D01*
X3867099Y1872132D01*
X3861663Y1871421D01*
X3856939Y1870303D01*
X3852875Y1868881D01*
X3849471Y1867001D01*
X3846576Y1864614D01*
X3844239Y1861769D01*
X3842359Y1858314D01*
X3840886Y1854250D01*
X3839819Y1849526D01*
X3839057Y1844090D01*
X3838549Y1837893D01*
X3838244Y1822957D01*
X3838549Y1808073D01*
X3839057Y1801825D01*
X3839819Y1796389D01*
X3840886Y1791665D01*
X3842359Y1787601D01*
X3844239Y1784146D01*
X3846576Y1781302D01*
X3849471Y1778965D01*
X3852875Y1777085D01*
X3856939Y1775612D01*
X3861663Y1774545D01*
X3867099Y1773783D01*
X3873347Y1773275D01*
X3888232Y1772970D01*
X3903167Y1773275D01*
X3909364Y1773783D01*
X3914800Y1774545D01*
X3919524Y1775612D01*
X3923588Y1777085D01*
X3927043Y1778965D01*
X3929887Y1781302D01*
X3932275Y1784146D01*
X3934155Y1787601D01*
X3935577Y1791665D01*
X3936695Y1796389D01*
X3937457Y1801825D01*
X3938168Y1815084D01*
X3938168Y1830832D01*
X3937457Y1844090D01*
X3936695Y1849526D01*
X3935577Y1854250D01*
X3934155Y1858314D01*
X3932275Y1861769D01*
X3929887Y1864614D01*
X3927043Y1867001D01*
X3923588Y1868881D01*
X3919524Y1870303D01*
X3914800Y1871421D01*
X3909364Y1872132D01*
X3903167Y1872640D01*
G37*
G36*
X4454906Y1722983D02*
G01*
X4440021Y1722628D01*
X4433773Y1722170D01*
X4428337Y1721408D01*
X4423613Y1720342D01*
X4419549Y1718868D01*
X4416094Y1716989D01*
X4413250Y1714652D01*
X4410913Y1711756D01*
X4408982Y1708302D01*
X4407560Y1704238D01*
X4406493Y1699514D01*
X4405731Y1694078D01*
X4405223Y1687880D01*
X4404918Y1672945D01*
X4405223Y1658061D01*
X4405731Y1651863D01*
X4406493Y1646377D01*
X4407560Y1641652D01*
X4408982Y1637588D01*
X4410913Y1634185D01*
X4413250Y1631289D01*
X4416094Y1628952D01*
X4419549Y1627073D01*
X4423613Y1625600D01*
X4428337Y1624533D01*
X4433773Y1623771D01*
X4447032Y1623060D01*
X4462780Y1623060D01*
X4476038Y1623771D01*
X4481474Y1624533D01*
X4486198Y1625600D01*
X4490262Y1627073D01*
X4493717Y1628952D01*
X4496562Y1631289D01*
X4498949Y1634185D01*
X4500829Y1637588D01*
X4502251Y1641652D01*
X4503318Y1646377D01*
X4504080Y1651863D01*
X4504588Y1658061D01*
X4504893Y1672945D01*
X4504588Y1687880D01*
X4504080Y1694078D01*
X4503318Y1699514D01*
X4502251Y1704238D01*
X4500829Y1708302D01*
X4498949Y1711756D01*
X4496562Y1714652D01*
X4493717Y1716989D01*
X4490262Y1718868D01*
X4486198Y1720342D01*
X4481474Y1721408D01*
X4476038Y1722170D01*
X4462780Y1722882D01*
G37*
G36*
X4321556Y1722983D02*
G01*
X4306671Y1722628D01*
X4300474Y1722170D01*
X4294987Y1721408D01*
X4290263Y1720342D01*
X4286199Y1718868D01*
X4282795Y1716989D01*
X4279900Y1714652D01*
X4277563Y1711756D01*
X4275683Y1708302D01*
X4274210Y1704238D01*
X4273143Y1699514D01*
X4272381Y1694078D01*
X4271670Y1680870D01*
X4271670Y1665071D01*
X4272381Y1651863D01*
X4273143Y1646377D01*
X4274210Y1641652D01*
X4275683Y1637588D01*
X4277563Y1634185D01*
X4279900Y1631289D01*
X4282795Y1628952D01*
X4286199Y1627073D01*
X4290263Y1625600D01*
X4294987Y1624533D01*
X4300474Y1623771D01*
X4313682Y1623060D01*
X4329480Y1623060D01*
X4342688Y1623771D01*
X4348124Y1624533D01*
X4352848Y1625600D01*
X4356912Y1627073D01*
X4360367Y1628952D01*
X4363262Y1631289D01*
X4365599Y1634185D01*
X4367479Y1637588D01*
X4368952Y1641652D01*
X4370019Y1646377D01*
X4370781Y1651863D01*
X4371492Y1665071D01*
X4371492Y1680870D01*
X4370781Y1694078D01*
X4370019Y1699514D01*
X4368952Y1704238D01*
X4367479Y1708302D01*
X4365599Y1711756D01*
X4363262Y1714652D01*
X4360367Y1716989D01*
X4356912Y1718868D01*
X4352848Y1720342D01*
X4348124Y1721408D01*
X4342688Y1722170D01*
X4329480Y1722882D01*
G37*
G36*
X4170476Y1722983D02*
G01*
X4155135Y1722678D01*
X4148785Y1722272D01*
X4143248Y1721612D01*
X4138523Y1720646D01*
X4134510Y1719325D01*
X4131208Y1717598D01*
X4128566Y1715465D01*
X4126484Y1712874D01*
X4124960Y1709724D01*
X4123893Y1706016D01*
X4123334Y1701647D01*
X4123182Y1696669D01*
X4123842Y1684426D01*
X4125823Y1668627D01*
X4127347Y1661109D01*
X4129328Y1654556D01*
X4131716Y1648815D01*
X4134662Y1643837D01*
X4138218Y1639620D01*
X4142486Y1636064D01*
X4147413Y1633118D01*
X4153154Y1630680D01*
X4159758Y1628749D01*
X4167225Y1627225D01*
X4175760Y1626006D01*
X4189526Y1624736D01*
X4195267Y1624533D01*
X4200296Y1624736D01*
X4204614Y1625295D01*
X4208322Y1626311D01*
X4211472Y1627886D01*
X4214114Y1629918D01*
X4216247Y1632610D01*
X4217924Y1635912D01*
X4219244Y1639925D01*
X4220210Y1644650D01*
X4220870Y1650187D01*
X4221530Y1663700D01*
X4221276Y1687220D01*
X4220768Y1693621D01*
X4220057Y1699209D01*
X4218990Y1704035D01*
X4217517Y1708200D01*
X4215638Y1711706D01*
X4213250Y1714652D01*
X4210304Y1716989D01*
X4206798Y1718919D01*
X4202684Y1720342D01*
X4197807Y1721459D01*
X4192219Y1722170D01*
X4178604Y1722882D01*
G37*
G36*
X4038244Y1722983D02*
G01*
X4023309Y1722628D01*
X4017111Y1722170D01*
X4011676Y1721408D01*
X4006951Y1720342D01*
X4002887Y1718868D01*
X3999433Y1716989D01*
X3996588Y1714652D01*
X3994200Y1711756D01*
X3992321Y1708302D01*
X3990898Y1704238D01*
X3989781Y1699514D01*
X3989070Y1694078D01*
X3988562Y1687880D01*
X3988257Y1672945D01*
X3988562Y1658061D01*
X3989070Y1651863D01*
X3989781Y1646377D01*
X3990898Y1641652D01*
X3992321Y1637588D01*
X3994200Y1634185D01*
X3996588Y1631289D01*
X3999433Y1628952D01*
X4002887Y1627073D01*
X4006951Y1625600D01*
X4011676Y1624533D01*
X4017111Y1623771D01*
X4030370Y1623060D01*
X4046118Y1623060D01*
X4059377Y1623771D01*
X4064812Y1624533D01*
X4069537Y1625600D01*
X4073601Y1627073D01*
X4077055Y1628952D01*
X4079900Y1631289D01*
X4082237Y1634185D01*
X4084116Y1637588D01*
X4085590Y1641652D01*
X4086656Y1646377D01*
X4087418Y1651863D01*
X4087926Y1658061D01*
X4088231Y1672945D01*
X4087926Y1687880D01*
X4087418Y1694078D01*
X4086656Y1699514D01*
X4085590Y1704238D01*
X4084116Y1708302D01*
X4082237Y1711756D01*
X4079900Y1714652D01*
X4077055Y1716989D01*
X4073601Y1718868D01*
X4069537Y1720342D01*
X4064812Y1721408D01*
X4059377Y1722170D01*
X4046118Y1722882D01*
G37*
G36*
X3889349Y1722983D02*
G01*
X3873957Y1722628D01*
X3867556Y1722170D01*
X3861968Y1721459D01*
X3857142Y1720342D01*
X3852976Y1718919D01*
X3849471Y1716989D01*
X3846576Y1714652D01*
X3844188Y1711706D01*
X3842308Y1708200D01*
X3840835Y1704035D01*
X3839768Y1699209D01*
X3839006Y1693621D01*
X3838295Y1680006D01*
X3838295Y1663700D01*
X3838498Y1656486D01*
X3838956Y1650187D01*
X3839616Y1644650D01*
X3840581Y1639925D01*
X3841902Y1635912D01*
X3843578Y1632610D01*
X3845712Y1629918D01*
X3848354Y1627886D01*
X3851452Y1626311D01*
X3855212Y1625295D01*
X3859529Y1624736D01*
X3864559Y1624533D01*
X3870299Y1624736D01*
X3884066Y1626006D01*
X3892550Y1627225D01*
X3900068Y1628749D01*
X3906672Y1630680D01*
X3912412Y1633118D01*
X3917340Y1636064D01*
X3921556Y1639620D01*
X3925112Y1643837D01*
X3928110Y1648815D01*
X3930497Y1654556D01*
X3932478Y1661109D01*
X3934002Y1668627D01*
X3935171Y1677111D01*
X3936441Y1690928D01*
X3936644Y1696669D01*
X3936492Y1701647D01*
X3935882Y1706016D01*
X3934866Y1709724D01*
X3933342Y1712874D01*
X3931259Y1715465D01*
X3928567Y1717598D01*
X3925265Y1719325D01*
X3921302Y1720646D01*
X3916527Y1721612D01*
X3911041Y1722272D01*
X3897477Y1722882D01*
G37*
D10*
X5929629Y930910D02*
G01*
X5929629Y664210D01*
X5929629Y930910D02*
G01*
X5840729Y930910D01*
X5802629Y918210D01*
X5777229Y892810D01*
X5764529Y867410D01*
X5751829Y829310D01*
X5751829Y765810D01*
X5764529Y727710D01*
X5777229Y702310D01*
X5802629Y676910D01*
X5840729Y664210D01*
X5929629Y664210D01*
X5668009Y765810D02*
G01*
X5515609Y765810D01*
X5515609Y791210D01*
X5528309Y816610D01*
X5541009Y829310D01*
X5566409Y842010D01*
X5604509Y842010D01*
X5629909Y829310D01*
X5655309Y803910D01*
X5668009Y765810D01*
X5668009Y740410D01*
X5655309Y702310D01*
X5629909Y676910D01*
X5604509Y664210D01*
X5566409Y664210D01*
X5541009Y676910D01*
X5515609Y702310D01*
X5292090Y803910D02*
G01*
X5304790Y829310D01*
X5342890Y842010D01*
X5380990Y842010D01*
X5419090Y829310D01*
X5431790Y803910D01*
X5419090Y778510D01*
X5393690Y765810D01*
X5330190Y753110D01*
X5304790Y740410D01*
X5292090Y715010D01*
X5292090Y702310D01*
X5304790Y676910D01*
X5342890Y664210D01*
X5380990Y664210D01*
X5419090Y676910D01*
X5431790Y702310D01*
X5208270Y930910D02*
G01*
X5195570Y918210D01*
X5182870Y930910D01*
X5195570Y943610D01*
X5208270Y930910D01*
X5195570Y842010D02*
G01*
X5195570Y664210D01*
X4946650Y842010D02*
G01*
X4946650Y638810D01*
X4959350Y600710D01*
X4972050Y588010D01*
X4997450Y575310D01*
X5035550Y575310D01*
X5060950Y588010D01*
X4946650Y803910D02*
G01*
X4972050Y829310D01*
X4997450Y842010D01*
X5035550Y842010D01*
X5060950Y829310D01*
X5086350Y803910D01*
X5099050Y765810D01*
X5099050Y740410D01*
X5086350Y702310D01*
X5060950Y676910D01*
X5035550Y664210D01*
X4997450Y664210D01*
X4972050Y676910D01*
X4946650Y702310D01*
X4862829Y842010D02*
G01*
X4862829Y664210D01*
X4862829Y791210D02*
G01*
X4824729Y829310D01*
X4799329Y842010D01*
X4761229Y842010D01*
X4735829Y829310D01*
X4723129Y791210D01*
X4723129Y664210D01*
X4639309Y765810D02*
G01*
X4486909Y765810D01*
X4486909Y791210D01*
X4499609Y816610D01*
X4512309Y829310D01*
X4537709Y842010D01*
X4575809Y842010D01*
X4601209Y829310D01*
X4626609Y803910D01*
X4639309Y765810D01*
X4639309Y740410D01*
X4626609Y702310D01*
X4601209Y676910D01*
X4575809Y664210D01*
X4537709Y664210D01*
X4512309Y676910D01*
X4486909Y702310D01*
X4250690Y930910D02*
G01*
X4250690Y664210D01*
X4250690Y803910D02*
G01*
X4276090Y829310D01*
X4301490Y842010D01*
X4339590Y842010D01*
X4364990Y829310D01*
X4390390Y803910D01*
X4403090Y765810D01*
X4403090Y740410D01*
X4390390Y702310D01*
X4364990Y676910D01*
X4339590Y664210D01*
X4301490Y664210D01*
X4276090Y676910D01*
X4250690Y702310D01*
X3971290Y930910D02*
G01*
X3971290Y664210D01*
X3971290Y803910D02*
G01*
X3945890Y829310D01*
X3920490Y842010D01*
X3882390Y842010D01*
X3856990Y829310D01*
X3831590Y803910D01*
X3818890Y765810D01*
X3818890Y740410D01*
X3831590Y702310D01*
X3856990Y676910D01*
X3882390Y664210D01*
X3920490Y664210D01*
X3945890Y676910D01*
X3971290Y702310D01*
X3722370Y842010D02*
G01*
X3646170Y664210D01*
X3569970Y842010D02*
G01*
X3646170Y664210D01*
X3671570Y613410D01*
X3696970Y588010D01*
X3722370Y575310D01*
X3735070Y575310D01*
X3290570Y930910D02*
G01*
X3290570Y664210D01*
X3290570Y930910D02*
G01*
X3125470Y930910D01*
X3290570Y803910D02*
G01*
X3188970Y803910D01*
X3290570Y664210D02*
G01*
X3125470Y664210D01*
X2889250Y930910D02*
G01*
X2889250Y664210D01*
X2889250Y803910D02*
G01*
X2914650Y829310D01*
X2940050Y842010D01*
X2978150Y842010D01*
X3003550Y829310D01*
X3028950Y803910D01*
X3041650Y765810D01*
X3041650Y740410D01*
X3028950Y702310D01*
X3003550Y676910D01*
X2978150Y664210D01*
X2940050Y664210D01*
X2914650Y676910D01*
X2889250Y702310D01*
X2805429Y842010D02*
G01*
X2754629Y664210D01*
X2703829Y842010D02*
G01*
X2754629Y664210D01*
X2703829Y842010D02*
G01*
X2653029Y664210D01*
X2602229Y842010D02*
G01*
X2653029Y664210D01*
X2366009Y842010D02*
G01*
X2366009Y664210D01*
X2366009Y803910D02*
G01*
X2391409Y829310D01*
X2416809Y842010D01*
X2454909Y842010D01*
X2480309Y829310D01*
X2505709Y803910D01*
X2518409Y765810D01*
X2518409Y740410D01*
X2505709Y702310D01*
X2480309Y676910D01*
X2454909Y664210D01*
X2416809Y664210D01*
X2391409Y676910D01*
X2366009Y702310D01*
X2282190Y842010D02*
G01*
X2282190Y664210D01*
X2282190Y765810D02*
G01*
X2269490Y803910D01*
X2244090Y829310D01*
X2218690Y842010D01*
X2180590Y842010D01*
X1944370Y930910D02*
G01*
X1944370Y664210D01*
X1944370Y803910D02*
G01*
X1969770Y829310D01*
X1995170Y842010D01*
X2033270Y842010D01*
X2058670Y829310D01*
X2084070Y803910D01*
X2096770Y765810D01*
X2096770Y740410D01*
X2084070Y702310D01*
X2058670Y676910D01*
X2033270Y664210D01*
X1995170Y664210D01*
X1969770Y676910D01*
X1944370Y702310D01*
X1664970Y930910D02*
G01*
X1664970Y664210D01*
X1487170Y930910D02*
G01*
X1487170Y664210D01*
X1664970Y803910D02*
G01*
X1487170Y803910D01*
X1403350Y765810D02*
G01*
X1250950Y765810D01*
X1250950Y791210D01*
X1263650Y816610D01*
X1276350Y829310D01*
X1301750Y842010D01*
X1339850Y842010D01*
X1365250Y829310D01*
X1390650Y803910D01*
X1403350Y765810D01*
X1403350Y740410D01*
X1390650Y702310D01*
X1365250Y676910D01*
X1339850Y664210D01*
X1301750Y664210D01*
X1276350Y676910D01*
X1250950Y702310D01*
X1027429Y803910D02*
G01*
X1040129Y829310D01*
X1078229Y842010D01*
X1116329Y842010D01*
X1154429Y829310D01*
X1167129Y803910D01*
X1154429Y778510D01*
X1129029Y765810D01*
X1065529Y753110D01*
X1040129Y740410D01*
X1027429Y715010D01*
X1027429Y702310D01*
X1040129Y676910D01*
X1078229Y664210D01*
X1116329Y664210D01*
X1154429Y676910D01*
X1167129Y702310D01*
X943610Y930910D02*
G01*
X943610Y664210D01*
X816610Y842010D02*
G01*
X943610Y715010D01*
X892810Y765810D02*
G01*
X803910Y664210D01*
X720089Y765810D02*
G01*
X567689Y765810D01*
X567689Y791210D01*
X580389Y816610D01*
X593089Y829310D01*
X618489Y842010D01*
X656589Y842010D01*
X681989Y829310D01*
X707389Y803910D01*
X720089Y765810D01*
X720089Y740410D01*
X707389Y702310D01*
X681989Y676910D01*
X656589Y664210D01*
X618489Y664210D01*
X593089Y676910D01*
X567689Y702310D01*
X445770Y930910D02*
G01*
X445770Y715010D01*
X433070Y676910D01*
X407670Y664210D01*
X382270Y664210D01*
X483870Y842010D02*
G01*
X394970Y842010D01*
X298450Y930910D02*
G01*
X298450Y664210D01*
X298450Y791210D02*
G01*
X260350Y829310D01*
X234950Y842010D01*
X196850Y842010D01*
X171450Y829310D01*
X158750Y791210D01*
X158750Y664210D01*
X5774690Y405129D02*
G01*
X5787390Y430529D01*
X5812790Y455929D01*
X5838190Y468629D01*
X5888990Y468629D01*
X5914390Y455929D01*
X5939790Y430529D01*
X5952490Y405129D01*
X5965190Y367029D01*
X5965190Y303529D01*
X5952490Y265429D01*
X5939790Y240029D01*
X5914390Y214629D01*
X5888990Y201929D01*
X5838190Y201929D01*
X5812790Y214629D01*
X5787390Y240029D01*
X5774690Y265429D01*
X5627370Y379729D02*
G01*
X5652770Y367029D01*
X5678170Y341629D01*
X5690870Y303529D01*
X5690870Y278129D01*
X5678170Y240029D01*
X5652770Y214629D01*
X5627370Y201929D01*
X5589270Y201929D01*
X5563870Y214629D01*
X5538470Y240029D01*
X5525770Y278129D01*
X5525770Y303529D01*
X5538470Y341629D01*
X5563870Y367029D01*
X5589270Y379729D01*
X5627370Y379729D01*
X5441950Y379729D02*
G01*
X5441950Y113029D01*
X5441950Y341629D02*
G01*
X5416550Y367029D01*
X5391150Y379729D01*
X5353050Y379729D01*
X5327650Y367029D01*
X5302250Y341629D01*
X5289550Y303529D01*
X5289550Y278129D01*
X5302250Y240029D01*
X5327650Y214629D01*
X5353050Y201929D01*
X5391150Y201929D01*
X5416550Y214629D01*
X5441950Y240029D01*
X5193029Y379729D02*
G01*
X5116829Y201929D01*
X5040629Y379729D02*
G01*
X5116829Y201929D01*
X5142229Y151129D01*
X5167629Y125729D01*
X5193029Y113029D01*
X5205729Y113029D01*
X4956809Y379729D02*
G01*
X4956809Y201929D01*
X4956809Y303529D02*
G01*
X4944109Y341629D01*
X4918709Y367029D01*
X4893309Y379729D01*
X4855209Y379729D01*
X4771390Y468629D02*
G01*
X4758690Y455929D01*
X4745990Y468629D01*
X4758690Y481329D01*
X4771390Y468629D01*
X4758690Y379729D02*
G01*
X4758690Y201929D01*
X4509770Y379729D02*
G01*
X4509770Y176529D01*
X4522470Y138429D01*
X4535170Y125729D01*
X4560570Y113029D01*
X4598670Y113029D01*
X4624070Y125729D01*
X4509770Y341629D02*
G01*
X4535170Y367029D01*
X4560570Y379729D01*
X4598670Y379729D01*
X4624070Y367029D01*
X4649470Y341629D01*
X4662170Y303529D01*
X4662170Y278129D01*
X4649470Y240029D01*
X4624070Y214629D01*
X4598670Y201929D01*
X4560570Y201929D01*
X4535170Y214629D01*
X4509770Y240029D01*
X4425950Y468629D02*
G01*
X4425950Y201929D01*
X4425950Y328929D02*
G01*
X4387850Y367029D01*
X4362450Y379729D01*
X4324350Y379729D01*
X4298950Y367029D01*
X4286250Y328929D01*
X4286250Y201929D01*
X4164329Y468629D02*
G01*
X4164329Y252729D01*
X4151629Y214629D01*
X4126229Y201929D01*
X4100829Y201929D01*
X4202429Y379729D02*
G01*
X4113529Y379729D01*
X3808729Y405129D02*
G01*
X3808729Y417829D01*
X3796029Y443229D01*
X3783329Y455929D01*
X3757929Y468629D01*
X3707129Y468629D01*
X3681729Y455929D01*
X3669029Y443229D01*
X3656329Y417829D01*
X3656329Y392429D01*
X3669029Y367029D01*
X3694429Y328929D01*
X3821429Y201929D01*
X3643629Y201929D01*
X3483609Y468629D02*
G01*
X3521709Y455929D01*
X3547109Y417829D01*
X3559809Y354329D01*
X3559809Y316229D01*
X3547109Y252729D01*
X3521709Y214629D01*
X3483609Y201929D01*
X3458209Y201929D01*
X3420109Y214629D01*
X3394709Y252729D01*
X3382009Y316229D01*
X3382009Y354329D01*
X3394709Y417829D01*
X3420109Y455929D01*
X3458209Y468629D01*
X3483609Y468629D01*
X3285490Y405129D02*
G01*
X3285490Y417829D01*
X3272790Y443229D01*
X3260090Y455929D01*
X3234690Y468629D01*
X3183890Y468629D01*
X3158490Y455929D01*
X3145790Y443229D01*
X3133090Y417829D01*
X3133090Y392429D01*
X3145790Y367029D01*
X3171190Y328929D01*
X3298190Y201929D01*
X3120390Y201929D01*
X3023870Y405129D02*
G01*
X3023870Y417829D01*
X3011170Y443229D01*
X2998470Y455929D01*
X2973070Y468629D01*
X2922270Y468629D01*
X2896870Y455929D01*
X2884170Y443229D01*
X2871470Y417829D01*
X2871470Y392429D01*
X2884170Y367029D01*
X2909570Y328929D01*
X3036570Y201929D01*
X2858770Y201929D01*
D11*
X5556250Y1402659D02*
G01*
X5556250Y1307203D01*
X5556250Y1402659D02*
G01*
X5515340Y1402659D01*
X5501703Y1398112D01*
X5497159Y1393568D01*
X5492612Y1384477D01*
X5492612Y1375387D01*
X5497159Y1366296D01*
X5501703Y1361749D01*
X5515340Y1357203D01*
X5556250Y1357203D01*
X5524431Y1357203D02*
G01*
X5492612Y1307203D01*
X5462612Y1402659D02*
G01*
X5462612Y1307203D01*
X5462612Y1402659D02*
G01*
X5403522Y1402659D01*
X5462612Y1357203D02*
G01*
X5426250Y1357203D01*
X5462612Y1307203D02*
G01*
X5403522Y1307203D01*
X5373522Y1402659D02*
G01*
X5337159Y1307203D01*
X5300797Y1402659D02*
G01*
X5337159Y1307203D01*
X5200797Y1384477D02*
G01*
X5191704Y1389021D01*
X5178069Y1402659D01*
X5178069Y1307203D01*
X5143522Y1329931D02*
G01*
X5148069Y1325387D01*
X5143522Y1320840D01*
X5138978Y1325387D01*
X5143522Y1329931D01*
X5081704Y1402659D02*
G01*
X5095341Y1398112D01*
X5104432Y1384477D01*
X5108978Y1361749D01*
X5108978Y1348112D01*
X5104432Y1325387D01*
X5095341Y1311749D01*
X5081704Y1307203D01*
X5072613Y1307203D01*
X5058978Y1311749D01*
X5049888Y1325387D01*
X5045341Y1348112D01*
X5045341Y1361749D01*
X5049888Y1384477D01*
X5058978Y1398112D01*
X5072613Y1402659D01*
X5081704Y1402659D01*
D12*
G01*
X2654300Y9067800D03*
G01*
X2908300Y9067800D03*
G01*
X3162300Y9067800D03*
G01*
X3416300Y9067800D03*
G01*
X4965700Y11557000D03*
G01*
X4711700Y11557000D03*
G01*
X4457700Y11557000D03*
G01*
X4203700Y11557000D03*
G01*
X3949700Y11557000D03*
G01*
X3695700Y11557000D03*
G01*
X3441700Y11557000D03*
G01*
X3187700Y11557000D03*
G01*
X2933700Y11557000D03*
G01*
X2679700Y11557000D03*
G01*
X2425700Y11557000D03*
G01*
X2171700Y11557000D03*
G01*
X4965700Y9525000D03*
G01*
X4711700Y9525000D03*
G01*
X4457700Y9525000D03*
G01*
X4203700Y9525000D03*
G01*
X3949700Y9525000D03*
G01*
X3695700Y9525000D03*
G01*
X3441700Y9525000D03*
G01*
X3187700Y9525000D03*
G01*
X2933700Y9525000D03*
G01*
X2679700Y9525000D03*
G01*
X2425700Y9525000D03*
G01*
X2171700Y9525000D03*
G01*
X1917700Y9525000D03*
G01*
X1663700Y9525000D03*
G01*
X1409700Y9525000D03*
G01*
X1155700Y9525000D03*
M02*
