M48
METRIC,LZ,000.000
;FILE_FORMAT=3:3
;TYPE=PLATED
;Layer: PTH_Through_Via
;EasyEDA v6.5.22, 2022-12-01 20:45:53
;b50117659dfb47be9d47098780dced8c,a2731e2ff01b41edbee4f831c5fec297,10
;Gerber Generator version 0.2
;Holesize 1 = 0.305 mm
T01C0.305
%
G05
G90
T01
X053419Y087751
X050179Y084624
X010147Y100032
X030353Y093223
X030607Y111845
X022783Y062930
X043313Y063411
X051267Y064933
X027049Y049200
X011988Y049838
X048678Y049200
X041789Y049200
X045500Y059363
X011988Y036573
X033587Y036573
X043313Y035313
X053099Y036227
X011936Y026491
X021723Y028169
X045326Y030925
X053228Y029867
X047527Y088202
X007562Y067102
X055484Y070809
X022783Y044796
X019314Y044796
M30
